<mxfile host="app.diagrams.net" modified="2023-10-24T09:03:15.109Z" agent="Mozilla/5.0 (Macintosh; Intel Mac OS X 10_15_7) AppleWebKit/537.36 (KHTML, like Gecko) Chrome/118.0.0.0 Safari/537.36" etag="UdDSl5-Nyz9hGlPY-JsB" version="22.0.6" type="github">
  <diagram name="Page-1" id="jsUwI5mRlKOwk8oIy3sb">
    <mxGraphModel dx="1430" dy="917" grid="1" gridSize="10" guides="1" tooltips="1" connect="1" arrows="1" fold="1" page="1" pageScale="1" pageWidth="1169" pageHeight="827" math="0" shadow="0">
      <root>
        <mxCell id="0" />
        <mxCell id="1" parent="0" />
        <mxCell id="GddeR_gk6UWAWkvnxlwY-1" value="User-Centric Applications" style="rounded=0;whiteSpace=wrap;html=1;strokeColor=#D9D9D9;fillColor=#D9D9D9;verticalAlign=top;fontSize=16;" vertex="1" parent="1">
          <mxGeometry x="20" y="20" width="160" height="780" as="geometry" />
        </mxCell>
        <mxCell id="GddeR_gk6UWAWkvnxlwY-2" value="" style="rounded=0;whiteSpace=wrap;html=1;strokeColor=#D9D9D9;fillColor=#D9D9D9;verticalAlign=top;" vertex="1" parent="1">
          <mxGeometry x="320" y="20" width="450" height="340" as="geometry" />
        </mxCell>
        <mxCell id="GddeR_gk6UWAWkvnxlwY-3" value="" style="rounded=0;whiteSpace=wrap;html=1;strokeColor=#D9D9D9;fillColor=#D9D9D9;verticalAlign=top;" vertex="1" parent="1">
          <mxGeometry x="320" y="520" width="450" height="280" as="geometry" />
        </mxCell>
        <mxCell id="GddeR_gk6UWAWkvnxlwY-4" value="Real World Objects" style="rounded=0;whiteSpace=wrap;html=1;strokeColor=#D9D9D9;fillColor=#D9D9D9;verticalAlign=top;fontSize=16;" vertex="1" parent="1">
          <mxGeometry x="920" y="20" width="160" height="780" as="geometry" />
        </mxCell>
        <mxCell id="GddeR_gk6UWAWkvnxlwY-10" value="" style="group" vertex="1" connectable="0" parent="1">
          <mxGeometry x="60" y="260" width="80" height="80" as="geometry" />
        </mxCell>
        <mxCell id="GddeR_gk6UWAWkvnxlwY-11" value="" style="ellipse;whiteSpace=wrap;html=1;aspect=fixed;strokeWidth=3;strokeColor=#7F7F7F;" vertex="1" parent="GddeR_gk6UWAWkvnxlwY-10">
          <mxGeometry width="80" height="80" as="geometry" />
        </mxCell>
        <mxCell id="GddeR_gk6UWAWkvnxlwY-22" value="" style="shape=image;verticalLabelPosition=bottom;labelBackgroundColor=default;verticalAlign=top;aspect=fixed;imageAspect=0;image=data:image/png,iVBORw0KGgoAAAANSUhEUgAAAJ4AAACeCAYAAADDhbN7AAAAAXNSR0IArs4c6QAAAIRlWElmTU0AKgAAAAgABQESAAMAAAABAAEAAAEaAAUAAAABAAAASgEbAAUAAAABAAAAUgEoAAMAAAABAAIAAIdpAAQAAAABAAAAWgAAAAAAAAEsAAAAAQAAASwAAAABAAOgAQADAAAAAQABAACgAgAEAAAAAQAAAJ6gAwAEAAAAAQAAAJ4AAAAAVPJRVwAAAAlwSFlzAAAuIwAALiMBeKU/dgAAE7JJREFUeAHtnWuMJNdVx6tn1xvHbBJnjR8JsbMbxjgJeQDhKfGwwBEIKaDIxIFIiRQgSJEAJQofQCBs53tEhGQhnuKDQRYiEN4oKFhESj4kvAXhkY28dgI4ju08bMPanpnm/6vuf83tO1U9XT1dj9k9R/pPVZ177rnn/uvUvbequnuKIiQYCAaCgWAgGAgGgoFgIBgIBoKBYCAYCAaCgWAgGAgGgoFgIBgIBoKBYCAYCAaCgWAgGAgGgoFgIBgIBoKBYCAYCAaCgWAgGAgGgoFgIBgIBoKBYCAYCAaCgWAgGAgGgoFgIBgIBoKBYCAYCAaCgWAgGAgGgoFgIBgIBoKBYCAYCAaCgWAgGBiegcnAIWyp/ZNzOJTpfMex+djl1El13rfex7bPt/gFe/MCt8Nhk54y+03t0TeJ7V3uernecdvO5db7mHJ0jtv2+F0nbvxS71lhV8j9StWdcNKHlCvV+PXCVwopwavEZHuf0FXqtLFp67+tfZtYurKFu88JjwgXu2qkzu/QiXeLgnqb8Kaa4LgCISZPrGV6RoRVBB+5LYkD6vT4zONoSrS2+rpYaK+un3W2y+I+rD/06TeE+4R/E3qToRPvCvX0auHFAsP9U4JPnLdtTnhuK3e1gu/cdp32cN6lnzrfdbq2cXBxnRZOCC8QOA+9ytCJR7JB5NPCBeFe4UsCOhPMVY74GNLQ5YnSpKcuktrbdlay/7dO73Zd39br6PFhP67vNlfR25YYUvtU7/jY0obtrEdHsr1TuFag7o7QqwydeO4sifeg8OsC642Qbhm4Qe7vEM5020yzd7J9SEmvRq7EoeMZkos+22aKtaTnwLrOt3GiO6c4GqhjYOjEO6WgWF94HTd0PHUcXYo688xoxzr7sry5YNhnmkWqYf/+W4uTZ68ptk+dKH5xa1LsTKczm8mk0G4icz1MOnvLUtmV23l5UqOczxds00LXm+uqwDI/xIFJFUsSX6lvss/082ZgoDHeyqbFTsnTtJiW65fd4u7rPlA8oH2H6y0eoY7k61WGvrng/MMNSMkorru22FLSnVE23b63p8SbJ6cM92Q58bHZEsN7ykhfyZk3W5VOprs6yQu2swBIiel0L/Exqzadn8R93+h1UmfFZezz3WZ9U9zyPetPlpDoD8RYpyOSuv7M4tuFp+lW8cuK7IH9IBdih/vG6zCps9HdoRNvaWcmO8WJra3ilN7pMCWXsjjcWSv2nQb7qtq90qzGtkmPk1V91zY4Vzb5aKOvs22KGz3JLkx3tg5cTMtC7aVs8SrupcmFRtIU4MpLjwsRxsgGgQv6BQ9x0MjAnLRp+TZ20QquB5WhE2/QzkfjwzEwdOL5rtYjWhXPqSeLyUlWPxIXDkfT8W55cqKY3F1OHFU/POJBLU8VqqVMZdHxTnWiO26nyT2drr2rfea01ibzWmapyUnolzMw3S2mdy5ev76WoZZ1vqle7miDpUMnnu9q3SUT4uPYboABRrxD3PR+Vzt04h3CRxRfqgyMOvFG/aznGGUEU20Wbn6cFXd/OOrEK1cfOQdNk0aTPq/PcZNtGz22dfZ1uk22ia9clrXZVJb76Pl46EHlOeovC1tfgdWFcOoGndYvFxMUu1qB6El+yBoMQJswufsube6qePanU+Ad/nu/qx068fgcHjE4rapF7vY1xfThk8XkhCjSVFExJtuQFgzoPXcx4a72zmJ6111VRfMM7/DPF356laETL++sE7A4/1gxOa2vAk30uQkRF7IuA0wZnk+afRxu0Vx3rZJqalurdh+Veqekj0712MZI+Rs68aoRbn4qRkpTj4kyTFP5eeg8iqETr/GV2XbnXb+MGtjTzcXd1TqajjvRuNC5uej9g6BDJ17jzcV5sTG2BahCOp6yNbu5SIL3zEICQvMzSVkvu0Mn3tJOcimGXJoMjDrxdDfmKeHSZH8cvYLj3nked+KN48REFB0wMHTi0b7XG3Rv8crzF2A66Hi4rBjgYfIi71VRdztDr99pn8fDTr6KgG0p9eZi9s7Mpd3xcOl6htHd6q7WTHrA4ZjE6z0Pem8wO8PcTRGDE86vcorzN+vXfJ5W3omirZ2qfN/SFLpm5njlw9yPj+3A/tvqXd/17Mf6fLuqXV5v2bF88rJb3/iZ3vmehVdmfhdEVLy37f2udujEa6RtWyWP6vnThF/QE3nVhwSaThD6w04urS2rT3nuY0j7uljqdEvirnjDZkQytsRbpHU+FpYfUTFpixbWHkyY/ZLFvbb1x2RfF0udjh7P9Wyu8MWzz0RTrX2Ljvc813fcTLgPBhYZGDrxWF9U67o0tAuP+5pNtbHfloGDg13pwSMexcCfz2vrfm37MSSeO08nTMjaHYqKBxl4Vl+Mz97VpkZc+L3nQe8Npj3WPndTXG1OuGr0O3tGV+L8e7VZnThswUBJrHjkg6BJNe9TDP+9fxB06MRLuIjdy4mBMSUeV6FHvtk50BRxOZ2Mrvra+2eeVujImBJvhXDDpC0DnlPb1uvafujneLTPuu7AaMdd7ZXPK4rnMObFuLd2HkDdtPkswzv8N1us3fLyir03mIVT8pLoFlLs5PzLPuWbi7lRfgW7Qp65tnN50sbBLFeh7VO7dD/3k9u73Hof28dhetul2zofdbq6OmV7+jN/c5FXS6tguqw8td3Y/tCJx91U7V1t8dKiuPIqXYr65u1ufCJ0vROulNoSu7vP1F5XTrhB7mqHTrzDCYUeELIeA9UDqvWqd1Vr3DcX+jhP5FxXp35Yv+NOvGG5idY7ZGDoxOMRU/pB0Cqes3T6REyy0LC2zKeLhud43FBgMchdbXWi1+7c0SrGTHo0/o5t7aETj9Gu9q72ggp2tcY7tsyOIfBm9nzBY0EO9P7cYOjEG8PpiRgGYGDoxPOVV9t1/UTZ0vLaSqE8wEDNR0+ax8IDtbtRjPs5nqbaE7o0+MKPBcbqsrFJ73rptsm2To8OydtcR5/7wG9dm036Nrb40H8CKplruLnAZDAZOvEa72p3niime6eKJy8+rf/BNVn4FhT/14yxcJaO8+/eSrcjnX7K8VAu+c9MrC3zvvP/zfT1onLNSaaVnua2HLEWTYX/E4Ys6Et7rCfz+GY2JAErVmLOI5z1J9PLD+uuhRjrdHJW9kd/rtDrMfYt9GdHui39oiq/UVMnmMNF77m50LG6yDrWcSufnoiKt+0bip0vXCwe1hPke2Szm5xGkm5Pv3RZ2RKjnJyQgl+tXS7zpFAGQHgle+hJ5q2ZfpbV5bOGrTIdM70q8zYK44UmpdvCseqX+qQQc/0/u0V76cr+8BVE7VfdVD0G+6o/xKNEOqlEKm8E7Be9bVNCyv4o/eVgb+fZ4pH5O1uayAX+7S4v6+x46MSbn6Mq+SruJneUCfCQev6+znp/eTuGa5KOC6L3xOOCCQkGemcgEq93ykfRoEc7gmG/mmn6im7oqdYdZ7g/LbxCuFZgCiA2pgBPAyYn/xXRVJ8+ObBeLkrBp4XFdP6zDVyEtGm97dEDP2S1X3PHciEV9NjU6elLrm/TH/49g28UHJ+5ctwyKcX9MSeOG66vF/BlH2WFPv+YvD7bTNsi2SCARLhJ+AnhSQHx+g8CUyEBIC8nDYLpT66XakE4AfhI7+R8Umgz54RkoZw2LRz7gkj1lOODGAx0CG3Sl1SPH+zz/lifx1LXd9umPtABYqzTw/s18zJ44LhXyTvWZ+P8KspXCWcFOn9GeINggTiEE5UK+lxHeZM+rev9Jts6PTokb3OT+tw37TXFsqrtMh+UkZBcCNvCi4R0NNVhtzJk4r1MXft+4duE/xM+JXBF+4Rqd6nYLj8RbfVLG+mxsG3cTfarhEzCceFzDm4Tzgv/IDwk9CJDJR6dfofwfcKjwoeEdwqsdyxOKBNsPaR5+kNnuya969kP9rZ1GVv0wFMoOsT+XX+m3Zzesdi/26vTW0cMqX2qT+Nr6g/2XOS/JdwqMNN8XnivwNR/yQpJxxV2UfgL4VuFkP4ZYLT7G4Eblo8JbxYuSXmuevVK4cPC/wp/K7xdYH0R0j8DX6Em3y38q/BF4U+FmwTW3J0KC8y+hGn9JcK7BK401nX3CX8iPC4wLaRgOgCpjv22+qPWb9tel/ab4CONj+n2y4K+wVy8SrheoPyTwlOCp3Ptblb6XOO9UKFzI/GjAlcUU+0TAndUwOLOkjBthbqH1VvFpm27dfZN/ajT18VEP2xr/+i8BnU/6+ranq192N5l1uOP0Q6cE35S+HvhfuELQifSV+LR6VcLPyN4Wn2N9rnKuMJChmXAyUs+vED4KeFhgXVfJ9JX4n2don+LQPJZOl9HuKHYtmbgO1TjjcJjwn+0rr1ChT4Sj1dgPK/j0QlT658LHxe4uWAkzKcOqSo95cDTAmW+OtlPxXrskbTOTLPvy7bWe9tGb/9uL/XBPiO5bTi276P0Bx+539Q3+6m0scf2+cKtwncLtwv/JTwibHzK7TrxIImke4PAEP4vwi8JnxX8btFE0vFU1tE7iVM/dfv4zm1JCNBGj++u4q6LsU5HDHX6dfpzlXzxpOFG4eXCDwgPCn8oHCv5JkX7QYHRjaT7aSFk/Az8vELkbQZ3vL8jfK2wUenqcQp+TwvvEl4v8DT8j4V7BJIwZNwMXFB4LxNuEVgqMapzo8FskI/wUrWXrhKPafV7BBKPZ3e8nfg14T+FMQs3PNx18+qOfSM/XqY/zNac51O6mhuNMNLxnJVz9/UCH+ZgCma9x7O/I0sXazxOCs/l3j/f/qO2fyR8Qhi73KoAv13gmaNl2VoJm3wEYL2Frkn/gMo+InAixyy8XTon3CyQeL8isOa7IBz5ouki8bYVGCMdwX5JuFf4a4HpdszC66PvFd4kMGpZnEQkVComv42eJGbUgPe/E/LklGo0wvn6kPBi4d0CCcgHOX5VOC8cSTadeDcqmtsE7mKZUv5AIOl4GDl2eaUCBBD9qPBpgUThBJBkOVfoEeudRExF1POUig2CDxbp3C3SDq+nxs7LZxTjXwok3Y8IPyRwk8hjsc8Ja4tJW9tBUpG10TcLjBhnBAK8T2Bd59FBu6OV1ymym4THhQ8Lvy8wmpFAbJ8VUkFPgnnN48RjqcG+E1O75TH6Hxe+UzgnvEIYe+LRt08KvyvwCaKXCncIJN39wtPCoMIJ4MT9tvCU8IDAsHyNcFzkNxXo54WPCW/uKOifld9PC0xVP9dRG124vUFOf0H4b+FJ4R6BC2dweb4ieJ/AiWOa+j2BZARjF0azq4WPC4xq9wq3CF3I6+X0rwQuzg/MGzguHF2peP9MYN3+oEAiPlcYVH5Mrf+TwBTDNPU1wnGRUwr0BwWWBJB6p9BVMlwn3yzO4Qm+zgmbXO7IXafyjfL+UYH4uVBvF9aSo3aa+ox2zPs3C0whnxBeKLxaSMV3f/l6b5meDoJUsG+jdxLZD8fAcZzW/hsFnj0+IrA2e5Vgye2td9z266319p/aX6GDi8IXBdbBPyx8RHhCsNgPa0h8+JhyfOd+m+Jrq18WNzEAzjePx24UGFzeKjAKPiPkcUnVLAR3FOGG4kXCB4XXCizMHxJYC7gj2i3FgaV62udEIxBN5xzTjvaxBSafMuttJ1VZBz/4QGzPPnY+9j6xuD1GvJcLrEeZAj8j/I9goS6wvfXuT6rHf94f7NE77nPaPyvg80HhIQFf2KBji2CPb+vR4duDhW3ZUt+8uj46gD02FnQIvlOpi5vy1B4/NwovEZ4nkIS3CTxwdn3tHi7uxOGWzRZ0wH6u1j4jYD7aNdduX2LC85pN+tyO49wWctEx+vHIIx3xdLhRoR2fzG3tAydL2lAeI2V1umX61N+m9onBAwIjuBO+lX8nTKtKDcYE9O8Cj1HYtzgwk229ybatj12e633s8lX92t7+cz8uz7e5/6b6trNfb22PX/bdf+tt53Y3pbc/bw/zazvH02RvO3LmNQJLq8GEqfarBZKNef69gk+EdkMuQQauUp/eL3Ah/bPAEiWftqVaLptOEq6WTftc3oMo7ZsBzq9HxbXb3lSSeJj2du2AouKxYMDnme1aSbjJxHMwx4K5CPJIDPhce9va2aZuLkhg5vlvEN4hEFB+e+0h2npfKeixzzvRVk/79q3dpZLaul3H55uAw/Re17jNo/THbaZBpzFaX6ejLNUfFnfeT/tGjzgW+8E3+z7m8RM3F4jP0eyoxd9NJR5NEuB3Ca8TCNInQrulOPA2+twWR3W+l+nLxrM/bXysEzfN5bG3aZP6dfZ1uibbJv1R+0O/eIbn/nlLeyvLUROPTnDFPybw1D/tVFNAR9W3JV9hHZBVfKR9wcFR43YQuZ9VYnHdNrbUabKnLI8DHbKKnjctvF7kvHuE1O7q0tTIqh4Yanl5/C0CD44tdR1Gh+RtrqPPfeC3rk30ddJk20Z/WNxu17Had17Pett7a31qb51tvN2EPm3Hftlab13aHxLwowIfrsjtbF+7tZPawhWVJB9P/JlqEfvMA9mUnvbqrrImfRlU9qfJlhi7irup/02x1OnrdHStTt/U3qb0tEnCkXw5Z1KFBAPBQDAQDAQDwUAwEAwEA8FAMBAMBAPBQDAQDAQDwUAwEAwEA8FAMBAMBAPBQDAQDAQDwUAwEAwEA8FAMBAMBAPBQDAQDAQDwUAwEAwEA8FAMBAMBAPBQDAQDAQDwUAwEAwEA8FAMBAMBAPBQDAQDAQDwUAwEAwEA8FAMBAMBAPBQDDQioH/BySNn5EVET5sAAAAAElFTkSuQmCC;" vertex="1" parent="GddeR_gk6UWAWkvnxlwY-10">
          <mxGeometry x="8" y="8" width="64" height="64" as="geometry" />
        </mxCell>
        <mxCell id="GddeR_gk6UWAWkvnxlwY-26" value="" style="group" vertex="1" connectable="0" parent="1">
          <mxGeometry x="60" y="110" width="80" height="80" as="geometry" />
        </mxCell>
        <mxCell id="GddeR_gk6UWAWkvnxlwY-8" value="" style="ellipse;whiteSpace=wrap;html=1;aspect=fixed;strokeWidth=3;strokeColor=#7F7F7F;" vertex="1" parent="GddeR_gk6UWAWkvnxlwY-26">
          <mxGeometry width="80" height="80" as="geometry" />
        </mxCell>
        <mxCell id="GddeR_gk6UWAWkvnxlwY-24" value="" style="shape=image;verticalLabelPosition=bottom;labelBackgroundColor=default;verticalAlign=top;aspect=fixed;imageAspect=0;image=data:image/png,iVBORw0KGgoAAAANSUhEUgAAAKYAAACiCAYAAADLGbZhAAAAAXNSR0IArs4c6QAAAIRlWElmTU0AKgAAAAgABQESAAMAAAABAAEAAAEaAAUAAAABAAAASgEbAAUAAAABAAAAUgEoAAMAAAABAAIAAIdpAAQAAAABAAAAWgAAAAAAAAEsAAAAAQAAASwAAAABAAOgAQADAAAAAQABAACgAgAEAAAAAQAAAKagAwAEAAAAAQAAAKIAAAAA78HgyQAAAAlwSFlzAAAuIwAALiMBeKU/dgAAEvdJREFUeAHtXQmUFMUZrtlllwUEF0EOReQU4xUVRVEOFQHF20TjwTMq3pGo0Xg9NOHlwkSfZ2KiCUIO1CgeoOIVRVDEAyEgCmgAYQERXJYb9pjO9/V2zWtGZufq6ama+f/3vqnq7uqqv776u+7uUUpEGBAGhAFhQBgQBoQBYUAYEAaEAWFAGBAGhAFhQBgQBoQBYUAYEAaEAWFAGBAGhAFhQBgQBoQBYUAYEAaEAWFAGBAGhAFhIBsGItncbNi9pdCnwkM7uOWG6ZdMnY0IsAnYCexIFliu28HAtVDzv8B6oBZwLEQUOm8FVgHPA30AEUsZYOEtBGw0xFR0HmdpuWStts1N+Z7IPWuXVh4LrHFmAs8BnwEbgAbAdKGBMg8dgUHABUAnQMtEeC7VB+KazUAZ1PsS0LXOBPg7A4UiA5GRbwE+bMzjZYCIBQywZmFtyEJ7zwJ9M1HxMC9/zOOCTCKQe8Jn4AkkyQIj2KQXqrCPqfO5b6FmspDytcYrMPYpC1l6IXP1AI3z+kLOaHzeSuJPWHDcHDrqwcF8C/TNRsVq3MwpJMrxjU5x/NpomG19RcOas5CFc7KccKcUVVPerDHPVv1ydUfLd1ZI1jyqulV2UGNq62IFqsMa66J2iNTXq2/bjlR3xSmp+5c8rafF4oIU5qGNhtlkLV9WojpWtFKjdm62qMBomY5aBo3jDdOfCRpp0UiThVw0LEhGjWNADNO4IhGFyIAYptiBkQyIYRpZLKKUGKbYgJEMiGEaWSyilBim2ICRDIhhGlksopQYptiAkQyIYRpZLKKUGKbYgJEMiGEaWSyilBim2ICRDIhhGlksopQYptiAkQyIYRpZLKKUGKbYgJEMiGEaWSyilBim2ICRDIhhGlksopSNL6M1WWr8OgA/HuPwqz+WiPsqJD94IxJjoOAMs7RGNUTRDjRsi+XRfA/1rbPiy3ShcVmYTbmNH1e0UeccmmlhGmYOCZOow2FADDMcniWVNBkQw0yTMAkeDgNimOHwLKmkyYAYZpqESfBwGBDDDIdnSSVNBkyYxxwBnU8AqMssYDJQVF82Q35F4hjIl2Gyph4LjAb831C/Ccf85uUE4E6Af4kiUoQM5Kspfx5cjwG0UdIYt3v888Os1wD8zPMlgG1/vQeVRbJlIB+GOQFKn+kpXgP3XKAn0B0YAlQBWibCsxjgeZEiYiBsw2wPbs/3+GUz3Rtg7bkaWAu8BewH3ALwfyEp3YA3gReBQwBds8IrUqgMhG2YQ0FkC49M1pTa+OL5vQ8n9gYm+C6wluUfMfGaSIEzELZhnujxySZ8egrcXoYwBwOv+cJe6POLt0AZCNsw9T9O8G9CUhX+YekpwNnA0lRvknB2MxC2Yc7x6OoAt0ua1LGPyb+BvjXN+yS4hQyEbZg0LneTOdwpGfDFe5/M4D65xTIGwjbMleBnrsfREXCnAnt5x6k6Mq+ZKlMWhwvbMPlmywnAtx5np8Olsd7rHYsjDLgMhG2YTHQbcBjwHg8gLYGbgRXAjwARYSBv//PDCfUBAKd+9IQ5J9afAj4FegARQKRIGcjXJg5NNw3xZeA6YJx3kvOWSwCevxL4BkhZ6jaqaAP2Jln3lmSDsuiF45SLI+OA+TZMKs6/I70H+AfwGHAaUApwpactMAhIWZrtUI6D4ZGzM+Vb8h7QQYcq2iBb/fwFkY8+pj99v5/NOwdD3wOWeRfqPFecImPAJMPU1C+Ch33MiwE9etfX6Pp1NqHG9+sm/oAYMLlgJyGPRLxwWZL7OLnL3aIGOz4bctwUAyYbZiK9OUjYlOiinC8MBvzNYmHkSHJREAyIYRZEMRZeJmxsyq0pBXaCy/DotyzD/BeXCxIsGfBa1NntPOZW3MVoKEX1oUJbDPMoFAxXiY4DOPDRwv7mFwBfz+BupZr6aKLix9WQpASGVoaZ2GXVypm5QjmzV2DFAPMLG7bv1vhchXdG1f5QbyHgN1/6+ToKhcu48ddptBsALkhwifddYDFgvfhJMDUz/4Zi56Wg3BaEOX7LbSpS1kLNgxHkRcpRQ67erJyRk5Uzb80uU1th6cMlXW6q/l9YCeYiHdMN8w1k+mRfxj+H/2tA680an7VpBUBxbuyvRv9+uHqkOg+G2aa5cm56RTmPfaxKdPvbqJbbDFP3dYDW3buUtdMOMXBRIr71m4hzlwJWStAkBUkCdxzp7XBV8J8FfJIggYdx/npeq6xQ0aU/U5HahsANIEHSjZaGPqJzDrYwz14ZS5fdjI+A3wBTE94c3IVhiOpOgN0d9Gpd4cPQH9jYeGjPr6mG2QYUsnYpB/jiWm9gPdCU3IGLv2WAuwar6Oj+qgTGEopUlCqn/+PK+XxdrOnmTvtjgHkADTQsYXn2BPhAVHqJ0jgP8vzWOKZOF/HdHv3Uj4c/mVGS8McB1xRfXKQiYTxxTAR9SmfYxF2MkoOPzgBr9zCNEsm5+f8S7j7AezwBYTO/uxU096KpP6YaJl9W0/KC9iRxabzsf6qNOxub01xXmNGoco59TDkfrorVlGuRfD8glQeJquZKtiPioQBH7JQLAatqTVMNc6dLZ+NPOu8EteItqMlcm8xlrdmyWWNNiWkgzeFqJM3CN2W5lMbZF2C3gvI2kEtK3ESC+tGkBhVfUPGs8kV0tc/flPcQXGTfVPWojE1KNxU+o2uco4xgoDNwvHIWrI0ZJXdEsftRnVGkubtpGaKe7EXPVuiq3CUVbMwmP0GsgdhX44rHYED3meDdrczGWQ441DMXqOjgbrkZ/GDe3DkGA52l1TGjZLPNAYcpNSUp8EtzHLD2ZFlvBtyHF67RYmqNSdKGeczBFtRM4AmAhtcd6AF09dwr4HL1xzXKg9qrRWceGLxRslQr0HwP/fsuRskVl16AqUYJ1dytgVfSA2kNPO36DP8xucYkdTcA9wE0zlRk8QeXq8sO76pmBbnyw9F3fb1yTpqgnMXrYzUlR7+HA1zPNl24ALEC2BuoBdgXNnplyOQaE9y5a+AkMlWZ0q+PO++ZaviUwmEjhjMIfUqfUa7BjVxxssEomUd+GHcEPZBy4J+uz+Afk2tMEvgV0Mnjj342QzQKLQzD6ZkfAA4QObWHGv/i+ery9exVZSkc6ADOkEn4/uHa2Ih2PqI9DrDFKP0svISD07wTnEJ6yn/RJL/Jhvk8iDrbI4sEkshEwtqLgyMaqlp4horuWY71appqhkJi6jD6HvSqiq7cHutKsDlkM5iNUTJqNq3pCifr/dNo6d7P8Jxs/8y7kV2R3p7fOMdUw9wXTH0FsG9JAmkMdUBTciYu8qNdamQP1XBPX1Wa6bILSeGKzoBpylmyKdanZJ/sSCDbgc7DiOOHQDrCLhcN6sR0bkoQ9m6cH+tdo/tLz2+UwzIwUQZAqRkA9RsNPAIkE9ZC3KxQ3quNcmacoiL88EG6wua7Du94D3tjF6Och3jYfGfbQfgz4rg6XZ288HPgsmXIVloggpVAOy+i/eBWeX5jnGbGaLKrIvzQgZZPtCeJyw7+10BX7izKwCbd6BuwzHj8NBVdtS3WfK/CBT4o2Rola0rXKJvB+LvtoWr9OuKgduUWtRxh/MIHsw8QZDkxH3cBfwIovwSuoMckCTLDQearxhcZV3Rm+Y4Tedm/7MiLGEWzFU97xgHLjOrct5XjM8pvEA9rFL8N4TBt+SvuGEUra1WmnLeHu4ZZpnc/oZZm7b6k09Pq0LiYm+OY/doOceezPXwUEVwCHAuMAsYDqXCMYOFI2oUXjlq71Bw3Ik2WaTIZigAsSNVXN1LJ7oi7vrVeqfuPVpF22PDrXaJBsN+aDU9/wf0sfEXDnzoEy1ktVWQHavVavAZC1OExosswcZLLiuNmX1rcmZVNHn1RBeM1ShlfltgHmu4dcyT5oOdP5PTEhWf1xdtQ72QyIqdldKhQkQ9OV5HK8phxnoHTL+m403T/hvBX8R6+cjHjVKUOaINuhjb7NCMLODhryKlenBxc6mmkgJPJLLrdPaWZxRT8XVzTXQ5UAtTzc2AKwH6k1rsUfjZH5wDuQzaog5o0bZi6qDqLiRVGXlOnnOGvK4VmXafF+csfAxwIJZPuCDABGMSAmLpyXj1ZsV8Zqd+NUfItSZxf2PUZ93+MeIsW7pZaCrDmDmrwo+Om2xqoAsg1GWM62c46IIrsRZOefUy5ieFIRPsOsEeK0U9yrlRjt2xXi2uyMEymxVptC5YhB03D5kpvf6enw5NwfwewQDmf2QDwAWkJsGDZ9bgWcKU1+pSvoZPRFUaZqKbMo2FSx3HAba6ySv0B7q2eP6+OqU25JoUj8i7APQANIJHMxQVO51xcVZ3R5PV34uX6eJsyFfnkDBUZ0WWXnegXIjBrzeXACmCJ518G9zMgZpT92qvoXNy/fxNGifD5ltuhwFpPiZ/DzbCHHmw2ctm5DkrTjYiI5N0B9AH2BLRguOLOyXH07AoGEoG1Am6ri9j+NUiVTKtS0YfQmZi9zo2fDzSbPyJenO/vpZzroOn53VXJFiwL6NF3fECDjkdCF3Rc3Ly9DJfdo7yKDYapCaKdLNIHYbm0chrXwI6qZMS+6HPiowVPLVfR16uUsxJzndvrVUPzUlXauYVqGLKPUhfBGHu0bjRI3meJvAk92YfnIOhogK1PXqePbDJMcJVf2Yz6ubJMlVyP2vAngLuy5KB/iXlI9BM5b85BjNpsj0H6CT0ZB6sBtgbnAXk1TNP7mODHLMGUI+ccFece2UTDidD15iJtaLYTEboGF/7oXWTrlFcRw8wr/cYlPsbTKLB+eqY5tKUpH4gMsqnpCPhJ24Dj2cALgEj2DNQgiosB9jHzKqYbJucFJwMDkrBUhetcoeE0jkh2DHAFjbznVUw2TOrG1RbWksmkCwJ8DByC9Wh2A0UyZ6AWt6ayzTDzFFK40+Q+5n+gvzZKrulybq0T0NkD/YcCDwEUrr7M2lZv1mYEVzP7fjD/kF8x1TC5KUM335/CfxbwAcAVCq6VE/Tz2g3AkwCl7a/mK/ZHRSxnwFTD7AZe9SDn1/Anm76IbeFavhUvpyULbXmhFYP6pvYxm/vI1+u4vlPf8VbrM9iB3qocjTq/fa4tW18z1S2Frg0Nsa/bmapmqHqZaphsqlnv0bZGAdOBpmSkvjh3g5oSrVU3N8e2NX3OdHdHOXYelbgfIohXlRtXdH/PiM0V8QoW23E5Msw5NRoXC+ZSIJFwzo17CBmW6AIUivDBXAAwXxwt727TCE6LhMnAYCSmjY3uMmAKwBE6Qf9cwB9mLI4LTR5AhphH1p7HFFrmbM3PJVDcb3hN+e9HWFu6lemUR3cfB0+kc6OEzS0DByJ6zlXOAZbFgc3cRGAwUMgyHZnTD2W/Qs6o5C01BjC+d9/p5iAxEcKYcuODpw2TW9NaAwUthdj0BVFgXCu+F2CfrixJhFtxnX3eMUAul0MfRfzXAJSlwBEAB30iRcIAp6d07ZSOuwH3HZ5jjt716cb9k8NznJ5EbwgDfaGHNkbWftuAdUnAaRx9D929gFwKl2b96fF1E+6s4hQbux5hdC2QjEg8A+x+cGVIF0T89UyPWaArABY65075rjrTYXpNgXOL9wHaWB6GP5dCPe8GdHra3Y5zK4HFAN5OEgmbgZ5IUBfG7QEmzon5HV7cb2YQL5dFqRe334UhvZAI53LZhdB80GVN3w2wWjjStE1IvhbWbEFJBSLSzeBHGUTKnU7c2bRHBvcmuoVNsza2+DBf4sRZAMuQbzayOT8SYC3P2lMkZAZ6ID1dQ9wSYNrtEddOL242h+lIWwRmTUW93knnxiRhOS00Hyi6plnXEEn4KYrL65HL972cHgB3AsDmnRuSE6EjrnEBYCbAfijlhUYnkF8aO9P4EJB18kAozV0kuaoxqTG/P+Tvs/ENcTaLTYFr2LoGD7p/yY9qcdsf4+dovGjExhrT36/UtVRQBcbpof7AHC9C9t/Y92wKmsPnEI735kqCzmuu9AwkXhsHPxw5a2EfLGhZhAiPAg4GTgGSNaFrEOZZgF2BoIWDH4KyudEpjl8bDTP2AS0UUdccFtNCxE3kUzhXy9qa8kWjUxy/uhmyLbfaYHLZdJrASW8owX4m5fVGR35NZuAXUE4POAaYrGiWus3w8slBGGtPEcMZ6AP99LwhR62VhuubiXo/xU364Xs1kwjknvww8Iyv4Phx11MBTnTrwQK81glXbfYDHgS0UdI9AigqsXkKgrq/BZzgK7FN8HMechXAUSwL1Qbhns92AFd4OAtAA9VyGjyv6ANx7WCAswrjAM4/+muYQvAvQJ5OAopSbK4x/QVGA70WGAlwJGvjQIEPUw0wC3gAeB8oWikUw/QXoJ77sy1vXNHi0icHdSLCgDAgDAgDwoAwIAwIA8KAMCAMCAPCgDAgDAgDwoAwIAwIA8KAMCAMCAPCgDAgDAgDwoAwIAwIA8KAMCAMCAPCgDAgDAgDwoAwIAwIA8KAMCAMCAPCgDAgDBjFwP8Bx1mJWaSnA6cAAAAASUVORK5CYII=;" vertex="1" parent="GddeR_gk6UWAWkvnxlwY-26">
          <mxGeometry x="8" y="8.769999999999982" width="64" height="62.46" as="geometry" />
        </mxCell>
        <mxCell id="GddeR_gk6UWAWkvnxlwY-27" value="" style="group" vertex="1" connectable="0" parent="1">
          <mxGeometry x="60" y="414" width="80" height="80" as="geometry" />
        </mxCell>
        <mxCell id="GddeR_gk6UWAWkvnxlwY-18" value="" style="ellipse;whiteSpace=wrap;html=1;aspect=fixed;strokeWidth=3;strokeColor=#7F7F7F;" vertex="1" parent="GddeR_gk6UWAWkvnxlwY-27">
          <mxGeometry width="80" height="80" as="geometry" />
        </mxCell>
        <mxCell id="GddeR_gk6UWAWkvnxlwY-25" value="" style="shape=image;verticalLabelPosition=bottom;labelBackgroundColor=default;verticalAlign=top;aspect=fixed;imageAspect=0;image=data:image/png,iVBORw0KGgoAAAANSUhEUgAAAJEAAACRCAYAAADD2FojAAAAAXNSR0IArs4c6QAAAIRlWElmTU0AKgAAAAgABQESAAMAAAABAAEAAAEaAAUAAAABAAAASgEbAAUAAAABAAAAUgEoAAMAAAABAAIAAIdpAAQAAAABAAAAWgAAAAAAAAEsAAAAAQAAASwAAAABAAOgAQADAAAAAQABAACgAgAEAAAAAQAAAJGgAwAEAAAAAQAAAJEAAAAAECD1UwAAAAlwSFlzAAAuIwAALiMBeKU/dgAADRhJREFUeAHtXUusHEcV7ZlnO7YxSSAkij8RT6AgIvJbsAgLBGIVsWABC4SChFkAggUIsWNjHIkFGzaIBRKyhAAJgQRSAAkECxCsQEIE8sFSyCK245CQnxM7MX5vhnN6+vbc/vcbT9etmbklndfVVbdu3XvqVnVNvZ73ksSTM+AMOAPOgDPgDDgDzoAz4Aw4A86AM+AMOAPOgDPgDDgDzoAz4Aw4A86AM+AMOAPOgDPgDDgDzoAz4Aw4A86AM+AMOAPOgDOwNgyMIvHkOOw4CtzQYA/tHGd1vE4zZEX5hXJbWR3lJnlNMUM58Z3yfeSKGuZ3us95aTUncqyh/U2JcuJrk4yUX0PmeeBJ4ArQphfVwyQhchjt7VrZN4PmXuDB7HoTrvsAJiGEcsT+rEyXoyhPlCH5bE8ZBoa0RbaQtBxltZzWzwDrGlBpK3YXOlI3Yl8ffbpfsUdUUQ8T/bsMnAV+CvwWeAnYBYImMShop1lnh3C9G/g+cBdAQt4ENGk6j6o0sUzbXSdDQS0nMnJNFWU/RI46pV6uWq4pT1miLjhED6+iX9suOkVO7tuuIks9nFhvBxjAnwceARhIQVOdQ6EM2EZH3wU+ClwCfg08DVwFOMt2gLpZJTaTTMpxSee1nLQc9TTp4+BTl+ijrNanBw1VaaIMoeskP5OY/ZR+pY42SV7kWCa2SV2dHOW13AHc3wl8EbgPeBYgl/8EtP24Xc9EAj4MkDTiJHAz4GlvDHAl4nZAeHwIeW4Jgqa6JTiEAQfRCTfSTFx5/gC8BnjaGwNcmS4CF7Jmt+DKCRo0WQURl2vZiDKIuB/i0u9pbwxwBZJHK1tyQ05ugyYZyKCdZp2RACY+vyWfFjzzyeTurWlyz2Qy36xujWYyEN6aTpDP7tMGNT9Go2TcSw76MJN2F41gjlpqU9ckgMWjcTKaTjv2K5kcbaJbu/RUEtqPd5PHj42Tf4x+Fs+kswwioaZyhVEPgOwvIBBy+xBlaaCBUYYWie1aRXcZSECa0Hg+GKpHFO4wCHCtrVeitVm0naIhBzy3VQuiLrU7/QHbYQ/jrjmNIIM2kE/9g/zcrin8GSdnnno9eQIKFo375r4XrKl1fEFdy2s2TW4Hc/eDvlr75qx2dKkEVbbSqK2uItxQ0KVDgrmheWOx1rsPN4j44wePdE6gRn1DVNQO0hAd7UXnZJrO3gmno6c5A1x6sExNz0XGS9cjYe7BcnN6glU0WxlVMSTGAjw/O1Irtx1tF6qOZbyCO74QW5E0uqNoh+aOa5S+L0oOdGf1OGtdkLPJFpyMgTherlpM+53Ds816plgHDjnrXquWa1FcG7Ql++bqAjFg+TjTK03ryhSIi1XuxpQ/yyBa5UFz2xUDHkSKjFXJXrwcfvPcxo0HURs7XteLgViCSO+PehnuQvEwEEsQxcOIW7JnBqyCiCuP/kSh83LuUCjbs2fr2gCnQLEdNloF0boOcRC/zgXppX8nVkHUusrwyNU3SQ2DWB0xzWV5hW9QstziqknL1e/aNoAByyBqXWwwvVrrN2BsGl08+pbCfrJRLlSF1S9g+/mnF+p+LdZfKsKpFWUQjW/E+8gIh+C/jo48BMcgZcSJdSmuVTrGIBohiPgww+vEARIH5Xpn9zJ09HCVL4Ljrc8kIT8RJcsgIh2SisOIb06lS5GWEMlNvnJW8dsf/JLVPJG7In/zuiC5IJN9IU88gKq0kZMIn/FWQdQ4c8gTnvus9zCqhhHXnDpepIzX4GMavMM6XnTApGsziAIbjYHWoGNTiyWA6L/J5LMKIu14ZfD9xLpCSaHgxE21q5HItHIrQsu8WgXRMn1wXcYMWAaRP66WP/jBVyG6YBlEy6fQNZow4EFkQvtgnZqs7h5Eg43n5ii2DKLG53d2TrQ5o7BHT8+/Wjj+4OpjsgKJ2ZZBJDb4dcUZsAqi8szJ79XypLIrzvLw5gtXvAYf0+AdKj7zwEGZkDA7cvUTa0VTZzbnDpLkVN93Nl6GgFUQ0dFWZ3WELcPRDdLRyusQPFgF0RC+uE4jBiyDyBebBQe95XdnwVchumD5Ulo3hSaUdJvlEkUGogsixs1/j8zOPZj3OJoP2JjPDRBy/sXGcyGT1T26ICJl4yMzsmpfCZGo6qKLcl0y7KyvHGWbUl8dfeQow1RjO4Noyj8hW/oedSpv+MMyiISuovss/Q4oxLWGx6Lspt1xJSIpDKSIkuXGOiIa3JTrYcAqiMqLTH5/+rQvQK0DWn3HOucO7biOBx/T4B1mBNHZsvNp1alTIGL2F/UzUb8UGND/MGZWQS4lkdPg3wexCiJx2q8LMHDibemKs0DLYZp4EA3D60Zp9SDaqOEexlkPomF43SitHkQrONznXy58KDH3wCqI+Cmi/KkiJSP9iK//26A5RZEZ4B/x8wHRAcTC/D79iJ+LeabCgH/Er1DiBWvAgNXjjNTpw8YilX7YWOQj8jvLIIqcGjevLwMeRH2Zikiu5cQ631uGNNeDKCTba9qXZRCZzJp1GMeWc6LmfeaAjlu+lNbulodYlZ9IObEKIs6Y2llzGgeNXzmT/rnm9A/IVpnc3JLxVvZ67CutHNTy2triOiutgohm63mVO37qG0nyyiH8DWuUaIHr9HMtmjOIdvlqLN9Bn6ecOxSRMn0/lxowZxVE5fjI70/D2a9aWTUg0UtRjR1suonN2cq1SuDw6i+l5bR4ZmUYsPx0JrOnSpafWFc5USU7txae9FyXqmuTkh86axlEQ/vm+gMx4EEUiOhA3ZisSB5EgUZ3nbuxDCKTWbPOgwnfmveZAzpuGUQDuuWqQzJgFUSNM+YUvE//+kVIFlasr30vtK44jdwO5aZVEJX9KTiO/y5YuC8L+32BAc0Vtwj6viA41I1VEDXuh07TUz8nah7v+i8xSODw6ifWzex5TawMWK1E5ENmD/ONKxMrPSkGqqs0uTPlzzKIFDOeXWUGPIhWcPRKvzsz98CDyHwIVt8AyyAyfY6v8tB1nBMFdy3O179mH2NH/n5sMR74tucuuYls+lkFkf5kVmCKr8de/Xnyn8k4eXQ6SfBCaCmBQjbG/zxv1JG1mDII+8hBvktXyYjKLYe1VQdsmfL/tPeSo1SNfwii8YGt5NkThwtnQbrfTjuoetnJKoga/QAjE5D9qzcmyaOjMQZmks075pl2k9H+rWR6Tagr14vm2Yyd4h/w1c9b0ZfJSbOFrlqH2FNWBJnUn7I9Ip/Zsx/trsFHTJ+Z3aqeg7Wzm1xI/pJcK6u3vLcKovKMkZBIuRh9IjmPDOGpmwE9Scijvu9uvQQJy431Esx3FTEwEEsQBZ89eyCfTxirFXsPZtqJOjn13B9E8VFgG7gN4Le9ngOeBl4AotqTwB7T5EFUpZ8BdA/wKeDjwAmAK+VZ4EfAL4B/AzuAJzDgQVQNg7tQ9GXg08CbAL+0zMf+e4CHgbcC3wOeATyBAcs9kd4HFT6dGY4Mz6U+AnAV4mPrDHAv8ADwO+AqcBL4IBBTMuXPMohiGgSxZRuZOwEG+F+BrwPcCz0FfA14EjgGvBsofiMeBZuarILIdOa0DPZh1B0A/ge8DLwK8E1B4iJwBWDivumGNGf/g1zKqs5r8DEN3mED50JCQ3Ww4hfRE/dAh4Bt4D5A0oeQuRWQAHtNKoyvmjsdUMHMstpYa8eDOdujI+6DHgPOAe8DHgb+DHB1ehDYBv4OPAEwmGJMwbm1CqIYyadNPP/5E/Bj4DPAx4D3AwyidwD/An4I/A3wlDHgQVQNBZ4B/QB4HfgAwODhnuiPwO+BXwLcH3nKGPAgqoYCA+Ys8G3gXRl4Ys1PZhcAP60GCTpZBhE3gTEnHjRy70N4amEghk9ntGELiD2oWmg0qyJn5I5g4ooZfGNtFUR8ZLxBr5FuBG4GhAiWeerHAJ8ktwPHM3EeUQT/1Gj1OLsMZ7mBpdO3AN8Cvgk8DpCE8qrEe35CYvA1JcpwUnT5JHJdQbsXuf1Z3022sZz6RI6rBe/LieX0gXJ19Vqeh53vBb6UFXKz/xgQ/Pyqy9DMvkEut0HrSYABdAngGQ33IXWBQjs56F1LNeU4CHqQxEfdlmVSjmxt6qoXfSIn11plNYVd8lIv/YgKKec9g42TkNfPAY8ALwFBkzYoaMfojCvGMeCzwEPAHQBXm6ZUZ2uZYLZtkquTLfdFmb5yDPY2WdpBmS45iKR6ZPKIzjo/tD7K8RiCZ1c/AX4DMIC4Lwqa6gwNaQD7PwrcD7wT4O+uZMVpIl+TzHzTZpJ14p8mH8WNiXJlfaJD+mVj5rV9IiN1vDLpfrUM68r6eF8uo5xOul/q46P/eYDbgCuAbo/bMKnsWJhe63vh76v0SqQHSbcQm4WwNjmR4VWgdTFPfX3kdDstX7ZH5ESvyEq5X50BZ8AZcAacAWfAGXAGnAFnwBlwBpwBZ8AZcAacAWfAGXAGnAFnwBlwBpwBZ8AZcAacAWfAGXAGnIFYGfg/GHxhpxJFOa0AAAAASUVORK5CYII=;" vertex="1" parent="GddeR_gk6UWAWkvnxlwY-27">
          <mxGeometry x="8" y="8" width="64" height="64" as="geometry" />
        </mxCell>
        <mxCell id="GddeR_gk6UWAWkvnxlwY-28" value="" style="group" vertex="1" connectable="0" parent="1">
          <mxGeometry x="60" y="560" width="80" height="80" as="geometry" />
        </mxCell>
        <mxCell id="GddeR_gk6UWAWkvnxlwY-20" value="" style="ellipse;whiteSpace=wrap;html=1;aspect=fixed;strokeWidth=3;strokeColor=#7F7F7F;" vertex="1" parent="GddeR_gk6UWAWkvnxlwY-28">
          <mxGeometry width="80" height="80" as="geometry" />
        </mxCell>
        <mxCell id="GddeR_gk6UWAWkvnxlwY-23" value="" style="shape=image;verticalLabelPosition=bottom;labelBackgroundColor=default;verticalAlign=top;aspect=fixed;imageAspect=0;image=data:image/png,iVBORw0KGgoAAAANSUhEUgAAAIUAAACJCAYAAAACGPtHAAAAAXNSR0IArs4c6QAAAIRlWElmTU0AKgAAAAgABQESAAMAAAABAAEAAAEaAAUAAAABAAAASgEbAAUAAAABAAAAUgEoAAMAAAABAAIAAIdpAAQAAAABAAAAWgAAAAAAAAEsAAAAAQAAASwAAAABAAOgAQADAAAAAQABAACgAgAEAAAAAQAAAIWgAwAEAAAAAQAAAIkAAAAAJOmXogAAAAlwSFlzAAAuIwAALiMBeKU/dgAACodJREFUeAHtnX3IJWUZxud9/Vh3241dsfxARZMU0wql1ErNCjIkWIKsPxKk+kP/qChFyQKRsrYvklXEoCiQArFPNirBskzZ1MrKrLYvoUXIdtVav3rb3fOeftd532d3znDmzDwzz8w5M899817vmXm+7+u55p5nZs5HkpgZA8aAMWAMGAPGgDFgDBgDxoAxYAwYA8aAMWAMGAPGgDFgDBgDxoAxYAwYA8aAMWAMGAPGgDFgDBgDxoAxYAz4MbDgV3xU+kj+vwecUKGuqrg+hxXrW7WDDIjLf4Ifg0cOJtfbOrRC9Q3U2QxeCzQoN8lsmrXMgA6sR8FjYKaiWGQA68E6cBfYCeyoh4QWTXyfCM4FOkgPA8GsSqRwne9j49vgpyCUKBR1QrVFUwesqXYPdNDyxjL9XQQkjKCCoL2kjig0ebvBP9SQWesM7KLH/4HgotCpoI7pCBTM2megMd7riqJ9KqzHxhkwUTROcfc6MFF0b84aH7GJonGKu9dBXVE0cfnYPRZ7NuK6ougZHeaOGKhzn0L1G7ssUuNTTGI+fEp+37MGOKj7E+JBc6Bt4RAwyXSzSzcbS0X2uqKYNIA20o6jk7cDOVvGRMasBFxmfL5l5PeZ4CiwBlwI9NghL/I/Qd7d4L+g0LoqilcsLCS3FXoXQwHkzt8VuCrk2XYyHgD9FcUlZyeLA4775VScGGYCI6KZaq68K5fdd5Vdutt35d1+9tWVd+Wy+668S3f7rrzbz7668q7caB8fl/Ymz+3clfxt5+7RI/S014oaR4NXA7GTYYiUHKsbKUp3lNN/peQvX5kcvnYjhOjOf8S2wLQP9ieP79mTbD3jQ8mdUJE+fWjNpbc4fNWXorqi8O0vSPl1uLuWM+li+rgI0nK3GhlFjcOS5Q1rkiVG/kJm9BJFpcMmraxMm7YbKwMmilhnforfJoop5MSaZaKIdean+F1XFJEv9aYw2+GsuqLosOs29DwGTBR5zEScbqKIePLzXDdR5DHTr3SvO88min5NfhBvTBRBaJz7RryuEjv57GM/czDknxC1MdVD3m6zqLfcBLROimLwVLI84PHPYG9AJjrY1OiB2DAZ8g6CojVDUf6Y950UxcgDBUSvoDjmdz925L/XdJdzu+6aooEhlRu4lfJiwOvwqSsKr5FZ4W4wUFcUXgrsBiW9GmWl+akril4xaM6sMGCi6LcSKq35TBT9FkUl7+qKopISK43UKrXGQF1RtDZQ66g9BkwU7XE9y568IrqJYpZTNad9myjmdGICD8vrfkUnn30M9yVDEP1TUs20zgteM15CbXVFEXo8JYZMkT08GeQJ6bK+cSFiG8L+Mqog3HutGYooqyuKovabyd9LpBATozdWNNNFJ1pdCRVDfQI/pHVTFGkGAhOSbnrut+X7ijCCDtUWmkHp7EdjJop+zGORF15rDhNFEZ0R5pso4ph0r5WXiSIOUXh5aaLwoiuOwiaKOObZy8u6ovBa1XqNzArPjIG6opjZwK3j5hioKwqvVW1zbljLIRno5G3u/Xw75JCvJteT0gOPCN2JLCvTsumunGPXtePS3b7Lz3vNlnf7rrxrx6W7fZdf9OrqqRx1R7vptKL6JfI7KYrh83yWlK8THQT+YG0JvuaqiMK8KFjg86QhB9ZJUSTP8pRUkSL13dwhSelKW6vuDwdBJTH+Xc4+XAQehk/XlM37VQvPZjpffOXUozjhexKa6nrVhaYbxGzFMdW1aDIXkETQeagqimgYj9FRE0WMs17gs4migKAYs00UMc56gc8migKCYsw2UcQ46wU+1xWFuzQt6Mayu8RAXVF0yVcba0kGuisKi1Elp3hUzOvmVt1nH3pO6dWhjyd5ZY9dk+zby5Mg9xudeeX6nq4jWuTP0yfE9HPKW8DVq2PjZcw05t+C28Hvx3KKdxQHTgSfA5vAmPCOuSPZdNrGZInPUUb9SAySFiFmidvcRc+LveJqlUihDtyPrZ/F9jTTo6tt0wpMyFP7+h3vb4BXTshPnuLDxdt3TcqJMm0DXms+glkVUTxJ758Hx+aMQqo9D7xtNX/sKM+p45IlorPB18AZYDfYCp4HTu1q7zRwJXgafBoURQzVcfXZ7I3JJ3H0cI5HlXyuIopnGcA3QV6HEoV+Tff1wMc0FonpS+B08Bh4P7gfpE0T/FYgUTwDVL7SL/VSL21Zf9RPCAvd7qT2ig4KLz+qiEJkFZ3DlO9IzToxaYAKfxeAm4GiwA6gSd8OJvXl0tSHvpAg9h95gIKJ5uZgYmZe4jxckuo3ud8CbgEvB1qUXgF+Adzks2nWFgNtiGKaWo/A0YvBF8Ep4Dfgg+BBYEc/JMzC2hBFnl9rybgEfBacDB4CV4Ffgsi/uAgGZmizEsWL8HkzuBGcBLR2uBb8CkT+ez8wMGOrstCsO2RdV78DfAycAO4D1wOdOkwQkDBra0oUuuLQWkJIR6ON7L8TXA2OB/eATwIJosop4xDqHQW6KqYlxq57MFUuKbVAXwfyblwpfT3wtqZEoYFIGE4c2j8SvAt8BBwH7gafAr8DVQRBteSlQPdMnACVpj5l2QWuS1/JPfg/W87luPJ5+SqX9q9svXS7us8iDnTa9L3XchZ13gd011eiSrfL7mhfB4y3NSWKNJHaliAuA7qyOAb8CHwGPAKqXGW49nU0nAO6aIqguuR+MbgOaKHtIwxF3VeB84BE4Thhc8zUh1ckakoUblQazEvA5eADq9vbeP0CkCCq3odQ3XeDNBHuSCE519Lls4Vc/WwZl54tn97P1knnufrZMlpbXQNeA24E14MHgI8w1Pbj4E6g+zquLzbHtp9k/xkllrEmRSESFN4vBwpxCmXfAbon8QdQVRBUTXaB72qjw6YotxtsAYp2N4BPAF2J+QhDk63LeHGrNdYk01xUiciT2qqc9l5q/h1oEaVnJf8GXwESR3rhyW7UtgbvNwOtq14A94A3A6UX2cUUUGR5FFxaVNgnv+kJ0upYi8g7wE1ADnid3yjfZ1NEuAvcAP4CtD74OHgDKCMMioW3JkWh89vT4OtgK9ApI3teJSl6kzB+CHRpvgO8DlwHzgczEUZTolC7/wK3g1uBnDXLZ0DC+AHYAv4EFCk+Ci4ArQujqYXmEzgjQfwEKCyaFTOwRJHvA0XYa4EihYus97Et4bRiTYni14xe191aXZuVZ0DC2AYkjGuAIoWEof2fg1aE0ZQoFCnMqjEgYXwPSAh6HPBGkI4Yym/UmhJFo4OOoHFFBN2HkTCuAhcBmfbvBY1GDBOFqJ5P08TrhlRaGIoYws9WX5UX3EwUwSkN2qCE8S2gyf8weBOQDcARwJ1WlBbMTBTBqGysIb0tQE+CZU4YEsUfQSOXq3n3yjUAs/lhQCL4M9BzjpPBueAUsAk8B+4FEkkQM1EEobGVRtLCeBk9ngrWA90k1OWqiQISYrS0ME6CgKOBHotbpICEmE3C0F3i/wBFDC027wcWKSAhZpMw/gr2AD2J3rEKXurbQv0mrIUZMqDPzpwJJJKHZzgO69oYMAaMAWPAGDAGjAFjwBgwBowBY8AYMAaMAWPAGDAGjAFjwBgwBowBY8AYMAaMAWPAGOgTA/8HDrLJ9pjtVD8AAAAASUVORK5CYII=;" vertex="1" parent="GddeR_gk6UWAWkvnxlwY-28">
          <mxGeometry x="8" y="7.039999999999964" width="64" height="65.92" as="geometry" />
        </mxCell>
        <mxCell id="GddeR_gk6UWAWkvnxlwY-40" value="" style="group" vertex="1" connectable="0" parent="1">
          <mxGeometry x="960" y="414" width="80" height="80" as="geometry" />
        </mxCell>
        <mxCell id="GddeR_gk6UWAWkvnxlwY-37" value="" style="ellipse;whiteSpace=wrap;html=1;aspect=fixed;strokeWidth=3;strokeColor=#7F7F7F;" vertex="1" parent="GddeR_gk6UWAWkvnxlwY-40">
          <mxGeometry width="80" height="80" as="geometry" />
        </mxCell>
        <mxCell id="GddeR_gk6UWAWkvnxlwY-34" value="" style="shape=image;verticalLabelPosition=bottom;labelBackgroundColor=default;verticalAlign=top;aspect=fixed;imageAspect=0;image=data:image/png,iVBORw0KGgoAAAANSUhEUgAAAHwAAAB8CAYAAACrHtS+AAAAAXNSR0IArs4c6QAAAIRlWElmTU0AKgAAAAgABQESAAMAAAABAAEAAAEaAAUAAAABAAAASgEbAAUAAAABAAAAUgEoAAMAAAABAAIAAIdpAAQAAAABAAAAWgAAAAAAAAEsAAAAAQAAASwAAAABAAOgAQADAAAAAQABAACgAgAEAAAAAQAAAHygAwAEAAAAAQAAAHwAAAAAG7PJyQAAAAlwSFlzAAAuIwAALiMBeKU/dgAAFVlJREFUeAHtnQm8nOO9xyfnxBpijyBCEpGIIqJ2KVkkalfFpfaLcl390EVLr9Ki5bYfqvKJKm6Dy71qabm24lqvnQix1JacRCwRIpoFkZxzv9/JedI3c2bmneWdc2bi/X0+38w77/K8z/PfnuedmSSZTKrUAqkFUgukFkgtkFogtUBqgdQCqQVSC6QWSC2QWiC1QGqB1AKpBVILpBZILZBaILVAaoHUAqkFUgukFkgtkFogtUBqgdQCqQVSC9StBbpV2LPuXDcIhkIvaIauUBs3/RxmwpvwNsyDztRIbvYxvNiZN630XjquXG3OBafACFgXVgRVafAsubqyP3V4KyyEBTAdHoTbQOcvhlpqFxr/Axxfy5sk2Xa5Dt+Gm58Le4LXvgS9oQ88A3+DShUCRieWKvuwGmwEA2Ez2AGOgOvgWpgFtZDOvhIGQDl97tCXuTdkRizulm2nYKVsbV2SUE1NBe7VlmlqXZh5eWFzZmLvozPzO9ykfUc5Dl+La74L+4COPR8eh9/AIXALXANVDZ7ry5FBIo5jHdgdjoNhcB7sDGfDG5Bkv2z39zAEVFVtr7BS5hAaOLi1LbPykuY6/tnUcdcye5qbM01N3TNXLZ6XrWyJOHwEdxgFH8K/wb3wJXwB6jOYk93qmj8+4rZvwc1ghp8JB4LZfyy8DlU5huvVTnAFfA0MtqrVhqPpWE8aKujwuJsYEItop1v34n2KC5xwHwe2FVg2b4VnQWerJIy4pKXq/rQfi2A2jIPDwSnHEn81rA3Vansa0NlObU9BC1QtFyHVqlQnlOrwHnSoF+h4y6Or0nqX083x8BrsCudCOVMYpy8jpwnLuE8mBvxBYHA1lEp1uOeFcy3hSQRlZxjqBW7yM/gAToPtoBJ53XjQ6U/Dd8BHwVDSS00wLulaBSeW04uGGVz7oJyC7ganIBea5Wp9LjBodoQn4URwrdCQqsThhQZaz4FwGZ12GtoTBhQaQIH9q7LfxdRccFp4GcJYQ4aHVw7Vt5J0eD2P1MXbxPYOHlpBR3WwFcLpLDi7gma6/pIkHV7vUX4/5vaTt9EVmL3Q2ILzCx0v7Vbdlq4FSju/wFlN3eKDMUmHF+hG3eyeRE98bNuibnrUBR35KjncVbUZ6Sdy9aW2+MxMqsNfJYeH+XcFjFddCU7K+l3QzlfJ4bV0cpjLu8CF5d3yq+Tw8iyznJ6dOnw5cizftsVWsdThy5HDSxlK6vBSrLQcnZM6vA6cya9Yqla2lpfQTjlfFzbMSrRq63VyA608MGrcagzMT6AybQvjO16Ow+NbS8+oyAKL52baFlf5c8vWZr6zXpRpa2stHjepwytyUYeLYlfHHa6I7liIk3BUNRmOo/2mgJ8yRhvuuB1zuOMFRfZU098izS7/h5J0Qpy1kspwnb0X+LuxqOP9ssLvj/0BQiMrOqboOKrL7PaWfH7mBom0Fe1cvu2kHG5BGQ3DIWqcz3h/EzS6wxnC8qGkHG50TgZ/MKh879eQW4M/gFxeFYI7vFY0Tr/HJsWrmsNLvXFSDncaMpP9ObCDZ82Y/UsL/pw3VYwFLI+dpXIcHjfH+PWjv/tSBoBPhVVFvg3VieLGXtU4NRYNxN0jEVN05gIxkQ7nacRp4yTwLzk2pDozwxvZ4f58+GLwp8Pj4TCo1XjiMrhTspPxVa1ySnrVN0ugAQ27BvwTnAV94XO4Dx6ChlStojSfMRrF4dpkNfgGnAM7gI98/v2uS+Av4M+Ia6WaZnBiJb2EX63Wu8M19OowCM6GA8B9s+EqsKR/Ag2tRsvwWkW/z+/9wQWZf71HvQPOp2b7AvgUOkM1ncMTy3B/8RLjjc4MrnIdsyMX3AunwPtwMxwNlnT/6s8+sBU0vDrTCeWU9EJRXu7+Uh2kky3X/gWCK+Eu8EvEvvAY7AQu3l6DEr4J5qzKFZM3lTccruQGyXzSZt0ros4MriLdyHtIR54O/nMid4DOVv4LFNeCfR8N/hXehlZiJb0EK5Tj8EJRXmy/xwodL6F7mQc4KTdmfQxzde4xF3MHgyW+lipUxcI9446H8/K+6gQaqMZO/2jXv+taROU4vEgzeQ9ZZm0/pgt5r43babn/b/BRbAQ43zesWq1dYqpXCtf7M6cO6cGuqMqZw6PXRbfzRbf7ZoDtbwQ+WoXP2dmsWn5u/yzcDWb4/jARkrwHzS1VXPbls8HSi+M2Wucxf/ttWRWttJpa/rwpZn5IwuH5xmPXXwH/En4/GA46J0m9R2N/htEwElzR3w8Np9b5mTazvAp/Z3T4Ipzd3L14M8ZFrfQBDd8KG4DP0YMhSTllPAd3whDYG/zFTS0U54u4ClC0T9mfKdtCtRS9y5KDtXT4Z9ziGnC1bRaeC/6TG5b3pGSWWzmc08dAQ8/l9L/mSqKkF4puZ5PJcAH4sahzrVnuXDsDDIhSMsdKMQHyyd/MPQ063SqyF9j+TPjKqZR/ASIJhxczrI9Q98A88EOSb8LxoLNdYRdTCAYdOKHIiQbEX2E0WNadx/2QJlzPZqpggXIcXsiAhfaHeyxg40F4HW6BgdAbVoBi8hnbj0/jpgAryZNwH3wXzPIX4F1ISoWqWFLtJ9KOv371t2XFVI7Di7UTd8xsboHp8Aj4bF5s/WAQHQhmbCmaxUmu0veA/cGMN/NZ+6aKWqAchycR5Waj5V3iNIcTdHxcBbEdz3kcrCRm+b7wIhhgufJcx1JKu7nXFnpfLHgLXZP8/hK+D6+PjiYzdL9ocfH2GlgdhkI5Ac3py780yCjoEzPUlTm+efs5u/JqdpitajMwcHaE+ZCEbN/2bLecyvIo58uJ4FOBWT4Noko6u2072CJ6n9xt1yzbwhB4At6EJKuMrcXaSodrnLGgCl3gfp2uDgeNGeR87FrhUDgg7KzgNQw+9EEDlSsXiH76thscBH7w47O6a4hSnMJpNdNKtPwtOBlOh7eh09cYOrwHrAFmgwudetEGdGQbCAFQar9Clg/igqMgPJePZjtuEVvqPXLPC8Gauz/63nGsAtpa53eJdLgyAy6E26BcA3NJ4tKAVowbK2jZrPG64eCK3Y9gt4MB4HjN9FIcxGnLn4LDHZlG6OqyF7Ww/anUMc9w7SMwEI4A5friUrjIN2Uqrh+lJIltlHJemV0r7/Sow8u7sv7P/iNdHAGW0PHweyjlcZDTll/Vu8OryYjJuM2Pc6eDH+Xmqokdzum+ukD0l7DOseoLmNv+6jHPyadK+1fpdfn6sHRfPXyWvrQzXbTxes59NbROdaG6M4yG7WEz8KvV4FjL76cwBaaCx73WJxWDpNNX19wzEdV7hmt4qVY6qyf0haPBeX1D+Bx8lDOjZ4Dfvnk/7WJmbwKDwVW165vvgOe+Ah9B6Fu5GRuuowkatuVl9mR3l/dHidfXu8PLG3T+s83KfnAMnAR+GTMTngMXd2Il8HndOV7T+dlCL9gcvg5WgU3hEHDlfxNcCQZF1eI/l8s6vUSf5b1fG7WJwGlrjulRIzjc+K9Ua3HhCPgJ+Ez/ATwGN8B94Of1+fQJO9+FF0DnuvDbFXT4znAs7A4GRamyCuT1aeuHmVb/2a68B0tsvRsO93dxvhS7pBEcXqz/xY7pjKPAT7Us50/AH+AW8HOHcuR8fjc8AHvCP4MON6CU7Vcnw6EaFQynZRutd4c7jLCQWrbnxd/p7FPgVHCBZUZfDNMgKtvXWeu0v67YftCAsLzPBp3t3K4Wwl3wLBhIR8LGcDA4RcyEQjLzvF9eFU3LvFd03GkpXLC48D28ot4d3nFU8Xssv8fByeACy+fv8WCZDtLw/WEL2BqGQF8ImbqAbUu637z5ePcKTIXwePch2+fADDgTvJ/Twy/aX3mpT9W7ww381WB7CNlXzJKe7yLrBLAyjAMXV9G52mweDfuD5Xk9+BhmwXywDYPGgDgI5oLz/p1wP0wHq4YYSAbVRfA9eAcuh1AR2Fwqg8y2ldtdonp2eDCKmafjwvtgqPA+GNH9bltizVQz+1qIOntL3h8HzsGeYxm+DV4FHWkVCA7vw/ZgGAp7wG7gV7bXgNdZ3pXvnct/CT+ASfAQ1KWqcbjPpr3ADyzcNqqd796DUPrYrFgafyI0QynZ3YPzNgIfqczGP0J0Th3G+3PgQDATXcDdAzpvHuTTyuzcCsbCt+FI2ATM6EcgLP4uZXtbOBy+Dy+BVSMqAylfkEbPqWqbf+sttF+wnUocbsYZ6dtAP7BEahgdbjbNgJfhSXDuq1QvcuFZkDsIDaei+923B5wIGvo6eBPCuWbqz2FfeB5+DXdAXGD6wcyz4HgMvn+FEXAunAHuc620GC6A4bAz7AcToO5UjsN70vsxYIbsBP3AsjYLNJxtmfGrgfvMnLvhFvgAypXXlHrd6pw7EtaECWCwhZK7BttmnVk6qX37UV5zZeA6nzfBbHBhpjOV43MsH4GBptN/CieAAaZeB6vGeXAo3A5WqSCvCwHodpeoVIdbKo+Bo2AAvAa/g8lg2dS4ll6NOwg0iMExDL4G4+ElqJVcbe8KGv8heB+CDmLDjNP4Z0PU2Rp+KzCIt4S1QIf/HXTgvfA0mOnqGbgINoZvwhFwOSid+Sc4GeyPmW6Q1JVKcfiG9NhBnNTec513B1iujXjLWVRWgrtgd/gXMEjMvAvBAElaOk0DbwM608AKferNtk4xc8+HByFIxx4Gjs1rV4c54LX214owCq6H/wLHqh6Hq+HncDrcCAaaDn8X/gqHwEgo5HDP7RLFOVwjfAt09gIwmm8CMyiUOzaXkdnxPLwBU8DStw/Mbd+2VCYpA2xzsLq8CC0QZKUZBG+BTlsIQQewcQFYvQyUW8D+6gyD3D6PhR+D0vEGhGsVnWwgbQ/7wQRQtm9VOAa2Au3nuOtGxRxu5gyDE8BsuAomgPNbVKvwZiVwYCGzPO57B68BfwN7g4ufyyBJrUtj/cF+6TADM2gPNjw+Dt6DkFlm/IWgs2+AS2AqhGsdz5NgoJwIp8Kr8DA4RoP2ThgKOn4CKIPhFTAwesGmMBmKSuNq7NC5oicXOdjG79JXbS7ejPcqJI2yFwwBy9R/QtTZlsFfwu1wN9wBP4KeEOTc9zBcAeuAWTMYktTaNLYxzIQPIg27fyCsCA+BfQk6lg2ngZfAUq+TgrPZzH6YorPHg2PrB9rC4Am6jw0zehcIiaPP/g4t0AM2gbpS6KgBpvObwW01ABzkdDCa34EgHfdD2BYsW15r5O8IY+FwmAVKAzwAltAtYQS8Dt4rCRlgOvdj+CTS4IZsr9m+bxqv0epj/8zG66AFCuk9DlilhsNucD0YWOpVmAfrQx9oAfUlvA/u7w2xKjQ3xl6Y54RSP0tfgWt/BWdG2tCR/eEeeAJCxdFp3wON8Cj8B2jQreFcGAnj4DBQXmewWCW+AT+F46AbRBXaz90fPSfftv3sB9NgQeQEnW12u9gyu0P7bGazW4fb/zj9jRN0vNXCewUZyJZuHSstoPSf+02m1aCuZKdClg/I0zOjdQrosKB92dgOHgNLuHOU2fMMPAdPgecMg4mgNM7L8AU4b0rSMlA0dlBT+4ZjiMrzDASDYG70QIFt+2wbXtOcc06oGsGGHrYPXuN9Qh/YzAac+zqIk5qbu2W6Q8VagUYWtGW6Ny3qkEjLtGlHvw/nR/aaCWvDkeBCywVKyA4rgRnufHwzGP3OY8rBPw3/CyNhOASHe8yot+w6z14Kb0O+IYZ75TvGJUv7knvcct7iCe3S6N63J+Qa3n64fwBMhWLqxUHPnQ22GaTzQwZ/Gna2v0YDL+dQx7f8n2O/Wvx55hr+nZZoP5c5MUStDsinL7HGl22Z9+evtPTxMd9p2ex+Lc+RDdg3BjRYcKinGeUru4E0WvRYdid/OH/pDEtqVLZlv533zPZJUEsZWGbxILAv9ikE04NsO+UcDQ9AMe3KwcFwH+j0oA3ZWKP9TVzQhGvC/cP77Ov6N2ar6JRldtboTaGIcn5zPtS50XlrPu8/Ap23NRj5uRrFDiP8zZwDBqdtGSSf5Ryrxdt3aNQFllXM6cVgDbq4feNAXr8dduZ53YN9h4CZfCdMh6Cd2bDNaaBdGkI63MjPRWfPgFWgb/srL1k9xp8tcBqMhVXBdnToFWB1sLz+DwRpmD7gVGGWOE3k3jOJ9zS7VAbdMzAHDoIeEPQCG+PBALwSHIvHQx8ct44eBz6J3AiPwBcQ5HET4s9hR85rNJtDu9FTwr64V21byE9x10aPZ+9t9J8BQyG3gxu379uMV+ft50DdBrvBUXAduP9dMIs2BbPfNqMLovV4vwsoK8Nvs1vJ/eHAJsFNYF+C7mLD0j0GHOPDYCCoH4JrEYPhMvgJGAj23xI+ELTJPfDvMAWCdmRDG6irl7x0+HNN9hwBjtf+mRDbgjoWnCqiNudtTeS934NLwETLfqRoRs+PMI9t+QzM1h+DwRHkYC6Ct+FT8Nw5MBWOhqiaeTMCLLHO4QZC9F7lboe+Ra+z/7fCFpCrcezw3P+DdXMOmsk/gFfgY7Bv4pidkhxjX4jKsf8FnJpcuObKKvY7sB37Gvrpdmjf7eixcE4tXrXN89AfspF3MK9Gcz4Z6R6fDGeD5dwMCBrChtG+DsyA+0HDBRld/eA8OAyegHvB/ZUqZEVuGwbfQ+AaIyqD4HrYDn4LP4O5EJX93wG0gwE6Haxcvob7sZmdAs7g9XRwQbgXvARRGUS7w9DoziLbof3c8RS5pOxD2sSEMJCLanOO3gDOXX8CB2FpKkUOYCM4D4yyZ2EUdIWO5KbTQOP+AnpDOQb23PXgTPApxKA+BUq1Bac2hhzoSDAzdZpRotPWgiYopJU54Nz1a7B0vQWnQTlG5vTEZF9/BO+ATr8ezGjLb7E+eWwNGAZWh1kwE86HntBwai6hx5ZqB9kfLFXbw0qgjHBZEXqAWTAADJKzwDI+FVzYXAGLoCukk58C513HMQJGQXcwGAzQMA5Lss7cELaAfcEF3d5gZruqvxzmQMOpWHRHB6NRhsNJoNN7wTSYCDp0PmiwDeDrsA24mHseroWbQGPXg8bQiVNhW3DKceXqOFykOccZHKuDgeE5fUBHTwLHcidYtRpSpTo8DE4D7Qdmx0BwLrTkmSmtoOMtey3gNHAzvAr1JjPY6jMSrEgG6ppg5dImBqcBa2WbAo/B7dACBkTDqlyHh4Ga4WbxIHDbkujqfTZoIDO7BepdTkNm8WAweM1stQB09hswGQziVKkFUgukFkgtkFogtUBqgdQCqQVSC6QWSC2QWiC1QGqB1AKpBVILpBZILZBaILVAaoHUAqkFUgs0tAX+Hxx+5KGVKHVZAAAAAElFTkSuQmCC;" vertex="1" parent="GddeR_gk6UWAWkvnxlwY-40">
          <mxGeometry x="8" y="8" width="64" height="64" as="geometry" />
        </mxCell>
        <mxCell id="GddeR_gk6UWAWkvnxlwY-41" value="" style="group" vertex="1" connectable="0" parent="1">
          <mxGeometry x="960" y="110" width="80" height="80" as="geometry" />
        </mxCell>
        <mxCell id="GddeR_gk6UWAWkvnxlwY-30" value="" style="ellipse;whiteSpace=wrap;html=1;aspect=fixed;strokeWidth=3;strokeColor=#7F7F7F;" vertex="1" parent="GddeR_gk6UWAWkvnxlwY-41">
          <mxGeometry width="80" height="80" as="geometry" />
        </mxCell>
        <mxCell id="GddeR_gk6UWAWkvnxlwY-32" value="" style="shape=image;verticalLabelPosition=bottom;labelBackgroundColor=default;verticalAlign=top;aspect=fixed;imageAspect=0;image=data:image/png,iVBORw0KGgoAAAANSUhEUgAAAJoAAACaCAYAAABR/1EXAAAAAXNSR0IArs4c6QAAAIRlWElmTU0AKgAAAAgABQESAAMAAAABAAEAAAEaAAUAAAABAAAASgEbAAUAAAABAAAAUgEoAAMAAAABAAIAAIdpAAQAAAABAAAAWgAAAAAAAAEsAAAAAQAAASwAAAABAAOgAQADAAAAAQABAACgAgAEAAAAAQAAAJqgAwAEAAAAAQAAAJoAAAAA0nrQWAAAAAlwSFlzAAAuIwAALiMBeKU/dgAAJS5JREFUeAHtnQm4XWV5qNcZMxACBAIhIYSQQBAEAQWUIUwRpQJXClyGVrDgWKvWp/r4dLhPqa19rr1e+2jbK9ZqbaFqUVtEKSgGEgEpyCAoyBAyGDIwBUIIZDjn7Pu+6+x/s846a5+99znr7LPPyfryvGet9a9//cP3f//3D3vtnSgqpNBAoYFCA4UGCg0UGig0UGig0EChgUIDhQYKDRQaKDRQaKDQQKGBQgOFBgoNFBooNFBooNBAoYFCA4UGCg0UGig0UGig0EChgUIDhQYKDRQaKDQwTjTQMU7KOZGL2UblDoTz4UJYB69AL0wYKQxtbJtyb7I/Ba6Ci+AkmAuT4HnQ4CaE2JtGQxaQ6MGwF6SNub2cYV/5GA7GS/Ziy2bcZJhxjeezJS8Q43m+EVbCGmh1sV5HgIZ1bvm4O8dXoRvuhR/BUngYtsK4lrwNbTe0sQgugJNhNqi4pCQNJBmu8QQjNNx4kgwz3HiWO1n217heC8vhB/AQtKJ0Uag94Y3wP+Es2B/Ww6/hGTge5oPGdQf8O2h4DqnpTkfQ+BC9Q16iu18AfwOXwkwwfQ3CYy00qM6MeCHM+yGNEBaup3DvYDgB5sCtoEFKK4g6mAZzYQl8DhaD9XgKvgVXl487OKq7feEoOBGs+xqwPj0QOiun40NUQF4yj4Quh8+UE/xPjrr/teXr5EFFhbyTSgthxg3hybAQng7TyN4NZ8KLYEN+HZ6DVhDLq2F9Es4pF0iDuhb+AR4sh4WDI8FH4EqYVQ5cwfHT8GOYMHO3ct0aOryV2LeDBnI9vA2mg8NpEnu2JMM8H0mYc8F3gsa9DX4OerZWEL2SXv4x0EDUzzJw6DwQHAnS4hDrQsE6aYwapdhp/wlOA+PsknIGtXaeoSL/COyVzZSDyOwz4DzmebARx0raydiO80Fwzuj8SiNTP1eDnTJroUTwAHGBcAx8GO4H523PwTL4YzgExoU4R8hLVG7oZZs435lXwnWmoyfbAg5Tk8tHzzX8ZorGcRycC6fDYeBwfiM4lVgGa6AesT4ubIyvsZ4N7wBHiwNAQ/sh3Aabodl1Jcv6JE9Dq5pj6eqoc91D0R7dU6IZW7dHHW2dURtuR89Tkc6+qLOnPZ7oxmFtfVFbe3vUTgHjeKWOfiV29EadO3ui7dN7o0173hBtxpKqKZdbTZVucpsPp4AGcR443GkoS+EWuBsa7YB9PGPH1VBXlTmLo0PyJXAoHATL4AloyflbUwztN09Eu3d1RW/BQJZ0d7ByKkXYTbyCRC/9glH1UJiOvlL/IqG9LerjvNTW1r+9oWUqpVLUN6k9eum19ujOPS+i4b4z0GD7YzX1rwbtCvENoBfTwObBRnC4+yYsg2dhpPJLEngKfgEXw8lwAhxRRmO8D8yrUYPmkdGTphha17Zoel9ndCoG8kmMZ2ip5Ye4Txdf29fHpL8t3l8qm+DQyY7CXUuq/vYAV7xXwbGgF1sD18FXYQPUqjVR6pZXifljeADOgU/DHLgSNLx/A437aXA60RLSFEOztgyNvXax3hGq3NYFkxnKwEaYS11t45zUOdIXQa/i3Mxh62b4K3gYRlNc8GjMN8BfQBhG/4xzh+7PgfdaQvI0NG0gNLBHr2OZ0h219fRGNZ1ZiF/rSOJ9fQypK155PQ+eseFD/pW8a6U1jPvmswguhYvBzdUuuB1s+GXgsNkMsbNp3BrVUrgczoQj4fNwPvw9/ApegzGTPA2tqZWwtcdAXOktht+Gt8CBsBK+B64obVA9TR80Q+xYPbAelpePDqnngivfPWE2uMVi+VwshM7IafMkT0OzAsGTeKwo+7UdUamTFSQT+1yEZNpdFCycNkBp5pe0vzwVarqngN7ineDkezs4+b4Jboc1MJYTcLc37gPnhCvgLHBhcirsB3rhW+AOeAmaKnka2pAFZ1X5uhkOGbO+m+15mlH1LLu55UT7BLgAToOp8Dj8FPRkfgrRMpNuyrIOnJs5R9ToFsNR8B5wT28uWPanoGnDaZ6Glm76iv+avBfurSdqa8PY2vE76YhUuG4x0XLCbfFLNQOfTCZdyX9glLquKGk87Lhl8Xb4QPn6BY53gw35ffC6FcWV72NwNZwDdpKT4K2gN3Yo/TY8Cg71o+6J8zQ0ypstbTPZfC1FHQyf8YogaQ3ZT1QPjQ2NPz097MPtRrzvVI87zDvqxLmNQ8+H4WToBT3Fv8C18CSMB7HcdoifwcVwFRwO7wPr9wVw+F8Lxh1J0/B4dcnT0Kp6kNLOqNTuzj7VYG6Vi7Chm1NKg4pzPCEfgd8CDc4G+C/4a/gluI813kSvdQ0shyvhY3AguFo9G7z3Q3BhMSqSp6GNSgGblKjbEwzwsQdT8c5l1M098A24FTaCc5rRMnCSHjWxzBqRnviLcBv8PjiUngRz4AzQY98Pucu4NDS0VtV7JjRUr0G4D3YaXARuWewPq+Bm0JP5rtgmmAiyjUqsBhcJz8ASeDc4nO4NC0HP5hzUjsWMOh8Zl4aWT9WjKaTjakwPdjo4F2MWGU+M3bqYBDbAoaBhe09JK78jI8y4DrlJMSxt/NXi+Vw6n5BW6GThWC1eMr5xQ97haJhefCeYhh1sH5gHC+AWcLvEN09GLHkaWroyoWGijq6oo9SX3ycDZNRL07ez5jPPIOmGTN4LcTwaT2W6oXk+aGAHQFK8vy9U6sC5DSTJMC7jRkqGDRXPMiXLZQMnnw3ppeMZnpZq+dQbz7zNxw5lZ1GcQti5DoQ3gAuFO2AljGgrJE9Ds+JBrEDlutTJeR8btqi0rRIaotY4hvghRY5s/LbxGlFpxcBHjWmsocT7KvZEcKhcBK+ASTnxnwE9oFK3QDI905e0Yei5DAtxq8ULDRvi8cggIw1hxknGMzwt5qPUEy+r3KE8k0kjeGUXOutNFHEYvRC64WVYC8OWPA3NQiQrHRQRlXbjtaDOqL2D6mholRvDKHa5BdpNZOHR/P27SiImm5l/JUb/fT2VWxX/ABqJz2hgZ8GlsBqug7vBBggS0k4X3/C8w8wznWYoRzhWK0+4nzwOVcYFRLwAToZH4dMQOpNHy+EQ21KGRnkyhD7ji4zxOo5iBw1lxKwvyAQYPFdsbDgpe7EK09CCmNosOAw0PD3cI/BTsCOGBh9xsUmrEak332rxqoWny7CZAI3MurvouQOCoXEai3obkeTt0TIL08anAhY91DwzUgOBtHiJ94SyGr6eLFRaWnEOlyHMNDz36ER5oosGFuprnb2WXCVtuSNJ3LRCQ3uspM1wGX8IPpLEBzzrjI/0OzcNMLYOwkL+Rs8yRMOzJJTddFVyUzpgVkHGIMy62tHUXSM6a6ioeSrURgoF9eh1LH1dUS8vPrKZP9ASyrcbPpTaog4S6+2ZMcCwNJCQv2kmja5WHuFZDU6DTXsyw52nODGu1ItzxfhJD2AZBtTfSEgw5mS5ks+arlsJphXHWX9uNHVndzSruz3aR0tQ+Bgvvtfrdyzw6h1t2bv5lXiUj9fg23l/r4c22Mr3MjbM/c6AfUHrqh3k1TwWc5DkaWiDEp8gATaAK9X/AW5qep0UDUQjCqIhSDLMe8bz2eTzyWdd5V4Pzpliu9rWFc3EyJYQ6VRSNG7U+7pJ99p4fKSnsQ6SRLw+OmYfBtnFFzVWkc4PiHzvoAdGOaAphub6uVe1hz49gkrFrcQfvjOQbLARpBg/OlRaltqP7z8FLhiUuNH7T0f817zFBcpycIshNjS89gxeSz5pckd02c4qOQ5VcNKpCIYW4QUfJL2HCcwyNJOqN7lKuvWeNMXQ/JYle2ht7WwHsnFbHhjqLeLAeL48Gb9AaVO4fz/6EjxUaGo/xmlk8zIe6ngmqxG9Zz+cCiEfTvul5DDJP78gETIP9xo9mgaercTAbD5NlzwNLemvrIzXseycFnV2d0Z9fJ+T79OF0GEe+5urr4PXhDr5LkIiFYeQpBKT9xLRMk9D2S2dgxNdoiKmI6YtX4P/C8HYwj2CGhb1fyX8KQTNVMrd1xt1dXZkz8EazokHKHxvW8egoda62m3NP6k/LvOTPA3NggYleQyKi7rpR1zE76PlURM8WjvWUOrZMkAxGkjIXw01klUouwanwcZDl4kgpiMh7a2cPwsOcSMV9e/czPRDx6yU24k+F5lzsOFkTAU6fAU+9ax1tRyhfqnb+VzmaWhDl8jqVVQ4dNRad1GWL1JmpTZcZaXTSl+ni+T9WnHSz2RdJ9NInsdxw8ox68Fhh/n17YGSvh54N6er5hlaTgXe5ZLRz9l9RmoO5TT8GHAsJG9DS6rjde/SgaqYiCZvjqSyDJ0u2dsWLhyQSro5Xs9/QLTMixDXIkoYxozsvWTaeVXDtLMklCVqn8ZGN28mW5iRfhnHTUwKXmLelzY1r9PDaVa5RhSWp6FVFESJBjaGhjbYZQ8ouFYYryYHhFa5YNjM2N5IGkOVB6sGp8ueNLTwULJOxk8+E+I0ekymk0w/TqdrNnNRTMCtiZIz0BFIBzWKdTx4380ymLfkUafMUuZpaMmCWuDXewlLagK6JpGblTViNQlur5rRmTA/FjMZlbStWDEgFfNLGshQ2Qx4kIsQ1+RNI2sxENI2rvfDM5wOW0wnfAqRTD9OcEcvn6hoGOHOsLPpfxDddrCR+3q79AdbBr1aTrn0J5r+m6ehpdOuXD/3QrRuxpToC9tL8W+1xuHsp8UN5f6aAZ2UhG82uc82ILySSDjBwPBm23tejp5Z+FF+UMWvWTRPLOuV8FsQGszyxnXgGKTeMOPPBD/amtAymoZWUf7Cj2EQ10cbeK3nuaDNhbNSHsFXfhJhvgK00MiJsPhZwh/dFJUOP5w9ocHfhIqNtJyHhpC8LgdnHowbDMcIlbKXz70OYRqGH0UFqdeoqsXTm4T0Qx4h7QlzHE1DqygJ7ZX4xVZnGSOcaVSSHOrExnIT8uPg54a1jM34u8Mx4GeaadEA3Zz9Kmhk6SHG+6YhivlJo/Esq19IdiibcJKnodVq0GYqT0N7H6Q3cbPKEIxCI8syNO9raNeC6SY9H5fx/MawUH8NTiNLd6qwuqsWzzTC2xucJsQnwlOJ4IZOaz+fRy5Vi5SnoVXNpMaN0DB+C2c6OF/xU0yV7hdfh9PDVdo68KcBgqcJx7TKvVYPDodZhkZwbFyWpanCr2TGEn/XIm22DZYkToNn+OhuTCRPQwsN2UhFfMYPlefA+XA8+P7+RrgTfgRrIOkxuKwpGthnwTlh2rDSD+t99oK3w6Xlm7WeKUcb3UPbjPhLOO3+kK+fuY1E3N5wL45V53DaaSRZx8/maWjDKYx99li4Dg6E5LzmIq5/AedBI55NI7FZ7oC1UI/sR6QFMEb9fYgiMuAGbzRErNq31CzdlR+bHhNJNuxIC2BPCZ7AYz09503E+wTo0ZwH3QhfhqXgh9bz4RqYDbXEuoT8jUsT1VWGZFyf13uOdQe0TG5g+4sllicfcdt88K6cddX86m2zYZVlLBXqfOgQWAwaxRfgVvCr+hreb8OHwK/BHQx6tTzemCCZmpI02JqRRysCr16XeAU7V0m8eRvSDQaWdBThXm7HPD2aPS+opZ5C+9aqnspJ+Fa4Hu6BJ+AO0OgMnwJzy0cOVSWZf9VIVW4Ew7Lc6mSMBpiBpduJB+KN2PzaqD+ttIe0rvnlMbAKlatRz6CS0+AT89aTKVbeoTMoweNOCA3eyDDIY4W0mgbyHDqDN6u3jn5R1xcIPU6Ds2E5uGnp5PxEcLtDY3MV6ivUzZJG6zJq5fL1d96KjV84CG7XzEIBk2FZhQjxXFD4xkvi0XT0oe6l4zZ8naehNZq5huMw+QCcBn8J34FV4CJhCRjnUXgcNMhdSrr2wDh4ybNNY6O7BaNJKiErLHk/nGto/qwr/9lDvY+ER3M5jqWhWQG3Lz4Px4A/svJ+CGJnfRLeBxtCYAPHWp09mVQ6bvo6Gbd551P7J0/tbGGPdB/NH6v2zZiOrVUNzTqPWr3H2tCcl/0M3Cu7AI4GDc4V5n/DTaDX2wG7puTlf0xn1MyodtOMtaE56X8JXG26i+8OvdseDpnO354GP44qJCcN8AnBmJjbaBpavRUynsb065x0WSTTghpg5M5VwnaEXokpbFPFPO04Gq4fJTUy6CS3WazDaHZAkq9PmMD7E4ZBp/U9NEQsXio1rVDXENN2Ul/qrRGdhefrOuapUL2Sw6ByBDj3cq6V9flh1oxhuGE+p5HNhgWgMt0O8diIVyV6vHFpQ4Tn0oofbhlNu9FnS6/yXxtN4iOj+McLs79eaLp1id+xoFLtfFE01E0n47nTF+0gq3wE5yN5GppG9SD4Bsbvwgpwsm+4EiqYbrz+u9kVzap8Osxr991cULwb/DRhObjhW6+o7CDqxE8j3MNLG106b5/JO8w0ld6fPxJNXTQv6po6hQVjyrPFPy1BJLcthpIQj1VnO//DYPvG5+K3ZXzRU09mm/gJjR3VesioSJ4JT6aEGpkfjNtIrhTd+wobrSEvKyfhmtNYQlgIrxUvPGd881Z5nj8G54Berd6FxCziXgWfAo1sCzRabh6pSKhLJYCThsP4AnHXbpOiqZO6o8luTSjhGP/fWonr+GbiTzoeubfxjaqdr26Ptr62M65bKI8GNw0ceRyF3DjPXfL0aBrWI/A78FHQ6NyqUMpq6r/I+W8wTD9RWA5fg3Xg0Fmv6BeCb1Dxrn6TXq7edHKNh2G0beH/WX5l+6BOOax8ML5JNETwZCEN9Wfd7VyjJnkaWtiquJ3SboJDYSZ0Q9LQwnkwEG7HivT6vbAQfg4/AofBZDwuB3kG7+u59GB6s8cha15IcFV5mTuW2/wcRrIkq9zGM7xWGRuNZ3znVP0eLORs6OtiqEajJ/8AOASqs7sgKeHpocroPT34+uSDeZ6nM88zbQ3MYShtzOYpaY9hA38bToF/g8/Ai5COZ+9Lh+m9HKYbNTAeicU0zd/yVtNJtXJnlWekYbGNxSWr/sfyOGWwM/8X6IWvhq9CUuott3mqPztd7pI2gjwzcCiVekXDDBN4PZReMSwk6k1juPE0XBcuMp7EzqFXCx3vVc7VW/BinLaG2PNaRdKeJH3dKuVspXIEb9VKZcosSysZWmYBi8CJoYHC0CZGO7Z8LQpDa/kmmhgFLAxtYrRjy9eiMLSWb6KJUcDR3N4YjobCsjwch5OGKzE/o9ynfKyVVuhsYYugWp7V4plXeNbtHDd93WZoplhHadmVeqsZ2kgbR2Pwc7v5cALwMnTloyVOMyUYYq1GCo0ZDC4k5maxYeIelp9OPAKjsvFJuuNSWs3QQmOHY6NKdfPycLge5jb6cE7xHyCdP4Obc0qvnmTUl4ROU88zTY3TaoY2ksr7Ecy58CcwB/zs7hlwt38oww2NM1Qckqg0Yjqezxvmx1cz4I3wRZgPfpS2GXZ5mSiGdigt6ZdbLoN5YON+Fh4C30rQEOo1KKLGkhU/mU6IZ5hzND9C83PaS2ARfBL2g+vgSdilZSIY2ptpwYvBlx4PgCfgGvCD5qfBOVSz5Ddk5DztPXBi+ci3M+Pf7nVIDZ/lcrprSasZmt6hXnG1dxy8F84B3327B3wD5J/BRg1eidOmyBpy+S68BDvgBNDDTQc9293gUL7LSasZWj2G4epOL3EkfBxOB19vuQ2+Cd+DsfQcz5P/jaBn+wN4GzisO3/zbYs7wC2QeupKtELy1oCNsBRsgK/BTEiLHs8G04PdCw6Leo9vwWJoNTmaAunJND731izz2aD31SOPVHwf7WBYBy5+PgqNjApE3/WkHkNTsVfAWtAg5f+Aym5V2ZeCWUYXJZZXb2YdNLaRyrgxtFYdOsNOe7IhnOh/AC4FvZpD0/+CH8N6aFXxLeG/g9XgUL8A/jccBl+HPFakodM5rWhJaTVDC0pKu3+HoN8Dh0w/WnoMvgQamcPSWM7JyH5IsWwObd8HvdpH4Fi4DPaCa+FuyOpcBNclaX3V9VAzI7WaoQWFebSXugn6FrgK3gHTwEb5VwgNx2nLi3NJje0m0NjeDyeDG8y7gwZ3C7ioGa4EnQ33+VF9rtUMLVlZla+ROVyeBW4L6MGuAxtlvG0T2HFegBvKZX+Z42mgl3a+1g3u/e2AkXg3Hm89aTVDszGUvWEJXAhnwAbwq2TfAD2ajTFexTraUTaD87d3wWKYBYp7gc/AcLxbGBFMp6VktAyti1o67Jl+uvLhOhiVCjHMHm18w08E52XzQLkVvgJOnN38TD7L5YCPmLxWTDMdL76R+pNVnlSUymVWmk7A0x4oK1467HGe+3o55cs4vgmcEvwB3AEudkzXYTccw7n1CnUL5x7NI50PQWMvo2Vo7oE5pzoCnIMkRUUoQVH9V/1GdggX3g97aE6knezbmO+FoEhOBzyfpdxq+fhsUkYaL513tfSywg3bA9bAkbAbXAM/hPtAz+ZwG9D49ITbQdlWxnPTUl9po/femEuofF4FcdvBOceHwe0IvVoHKEnD8lzjSYphGmXa+O3F7j15VIxnuUPZvU6m57kS4vVfVf8b4of0qsU0nqTLbcMmw9LxQrrGyyq39Z1UhkOchwsGjcjh03pLODdcfRjHTWCN7jxwRPD1qJtAg3QOqFF6DHHHbMoRlEBZRizTSeGt8EVYAPbC1eA8JJmPSrMxggGGe/ZGlR6uw3DhMJwU4/lsaFzTshHS8Xr8n0cOnxsdtv+M6CBSDekStSzk0MHT/jfS/KxTLCZWEcJK5ob4f5KTXuR/PR2L92g2C9zjeTnYQnG+c+O2aP2qLdFT23or3scyZpU7q2NNJa76tOOJns5OqzEplsKSaTjq08WEogd8FgwPaIgap0apgb4CwfA0wpdAw1wHT8KoLLLSlSSfYcssntSbuRG5Eq6FB8DKJSUou9yElVsq0bBkmxk3K56NprIVDUgjU7FJ6dq9O2r/4NnR5QftFx1IoqY1UEhlJ6WLDSaYbSKG4X02CdJLAvznElFXOV5snDTPDkrXlTBhf8Vne1+07flt0f3/ujL61sOb4o5mEtavrnITz3Yxvjv/GphofBqcRwnhGqThAYfi5P1kzYLRaUzWTJ15rsFthBWgR3wYNM7cJE9Dm02pji+X7Cccvw2Pla/H5LD52qh7a1u0mP/mxt8XGygYRwm199HPS/b1pGg4xC+h6l77esKQQjQ9XS8DXuzxUmkTfXtbX7TmisOiu2ZeN6xfFA/ZhKMlsK0cYoOBTeNcDNPYgvczLJwHb2gcjc9jwPRCGgdxfgKoiTfA38AjkJt3y9PQTGsfUO4Dm2hM5dFHedX2DYx49OmULfQbEqXzh+qy7hmoB4vvDYrQH67xxgY8+H783wJs3z446WEqxBz07OLQV6/YJhpmMCgNMrB34tzRSAM7Ci6Cx8H2c2TKRfI0tGSBHCIGqz8Zo/q5vVd3H/yI6ThMDjc9Hm2uUNA2DDBrVphHQdRLEvWSJJmH7eAQWZ4AJG8NOj+SkL+A8+FcWAotb2iUcdhi79Mz6vaVMH/Idc7Qn/S4/bsXJdcjORxqTC/As+DCYLiyngevBw1tDjjny03y9mhJrxM80lCFdYKuUZ0Ip8ChsB/o7n0+pOdw8TT8Au6Gn4MGOHYSSpZRAgpeYoVayqmlXBTY8GfAW+AQ0MhcAKkj0dhc3a8CdXMXOKF3JKhXNNKgU0cUyU3yNDQrHMRmSF6H8HDUwBbAYlCBi2AmzAAnqz7vikhR0ablHOJYOBOYfcUfSd3G0QlsVYXyW6+D1gHE75dapQzxGj/Geb46sv9W2s6mUb0TToUDYV9wjmW7aVyiQagzDeWN4KT+XXA//Ac8CXbUWqI2kh5xqParldag+3kaWrLZLGS1xndoVHFnw2I4DJRfwX2gC3ciGlY8KnwfUNEa5PGgwalUuQGeApfug8SfPa/6y9WW0lIPR4ZoBpJ02y3q8/8PHp7owU4GDcbjfNgMruJXwobytZ3RrNzScCQ4CNTRWfBmsHN+H26DdTCUWFbTCtIXTvI45mlotcpjz3PepfKuAIdLK+Nw+EvQ5T8Eq0BDCx7NIcKebO8+BjS0o+Ak0ND2AucWpjER5nFzqYc6uhw0li2wHB6Ee8Fth7VguB5N2Q1mg4bl8HocqJsLYD44WmhwK2G4xs+jw5dmGZpGZq9zGPhjOBicU9wFGslNoEfKUsJOwu2NosLngd7wClCZH4Lp8I+goQblczo2oltga6RtaldmfaoVSh1NhUvgfWA9Nahl8A24B9RFlmwl8MkyP+KowZmOhub574Np/zOox6ZLswzNHvdm+CpMhmfhK3ANPAf1SomIq0GjuhmuhTeBvV/v+Fl4GsajqCM70CdgFjwG6uvLsA3qFTuso8TDcDeoE6cnV4I6+hwk52JcVkT9jorYi/KSaoW0gzvUfQFUpob15/D38DwMR1SUvf1i0Mvpxc6Dj8B4lEkUWmP4f+Aw53xVg7AjajjDEY3qB/Cn8ADMB3V0LlQT22pUpBkezcnpu+FQ0CD+GnTvmyFtnMY5AY4CFW7FNUxXUD8DvVXojR6fgb8FveSpcDIsgZ/AeBKN4P2wN1gnvf0t8BokxXrqwdWRep0OO2EV6L30ZMnOq7EthwNAYz4cLocfgwYcdMnp6EqehpbsDVZQo1I0mnNAo/omaGR6o6SRqcDL4Ew4AvYD5xTGUdmnwyNwA6i4F0BRUffAjaAyVf6FEBva4X8e9e74fv/2hh8npSX++KmLTCjpoNsE9KGdPn1+smblRHy2x3tC3PB8iDqpI+rbZ3LVlXc5lfgQDOBd5cBvcVwKGlwQk50D74GTYQHMgCmgrp3vngV3g17sLjBceQkMmw8as4Z6NtwMr0IQdSmjInkaWrKArgxNewe8AxaCPchKLwa3J0KlaOp4Vfm7HJ3cvwIrYQOoLBVsT3RoOQA0yh/Cy6A4Eb4NjgbTOAMuho5pk6K2T10YHbZgfz4SIiApbTSdBtaDqn1Lg/22gaLx4CtKlgbRUIX/nyk2PJ/twyfv5NnOYF3cMp8dfVH3M69Gi769Ovbk1llRH9ZHFJ8ybDc4BWbBJvgu/AaCqB873sfgAlAHevlfgWlPAvV7AjgizAV1FfK1xObjit82cKS4EvaELWCRFctxSHw2Cn8sQF6i4kKhnQecDh1gzzMf770dTiufqwBFRVpp4z0By+BOeBqMMxuWgOmpTPOxB98MQVZy8gDoOefB1bCD/4aw7Ss3R7P22j1Oh6CUUKJ2cHc1a1c3/p/hyt3BTDXOimf0GYzNCvoKURDjcTn5pR3R8S9sj1fXDm2KKVkfoyg+pdFpAHuA3uV2WFM+5xDLPvy9ED4EPqMHXwoPggZnmseAulU/6uBE0NDKxYnz2YtrjVKDOg3mgWUK5TEdR5EgITxcj+jYOaKnBz7sykgvpDu3kCpQMVyjUUnTykcOsYKMqwKMvxG+DN+DZyApDrefhEvgTfAeUNk2oum+Bk/CnXAcqLAp3Gjb8GK0DUL+BFckKDJ4GBU9lJiPpOPZWMmwEE8btFG9VswnGS8ZZvnXgnVPDmd2wkPg46Dufgqfh1tB7xTkLk7kE3AezIX9QZ2ar2WwvhqfKJYtqzyWwzi2W26Sp6GtplT/BNNrlC7ZwPbEy8Ce9jW4EdJGRlBc8S9x1Cg/CBrbkfALsKGV++FvYZEXiPmERo4DqvwJ5ak3bjpeyCeEex3CklnWCnMKcAu8knhob86PhYNAg9HIfgJJI+Mylgf5ey3oAd8OGtlfQihXOBIUSyhPCPc6hJn+4/3R8vmbp6Gtp0jfraNYVkaxh04GjWwH/Ae8ANXkWW78EtaAnlDP5XUwtBc5vxccQpWgtP6rfP5mpZlXmA1uAwcPa4n3hcM9QX4Gq2EoT6Ox3QPvAPW6DBxeg+fntCJDlduy2Ca5SZ6GZoMn3X6tQuq6u8FK2ZvtgVk9leCKbOJMt24D7A8qK4gNpHJyVVBIfIyOdig9lHVbA7X0q26eBw2rC+zI6tSheUwlPUY3szAqTyyDBt8BScPhcpAYx7gap8qc6KJ+WHLEYqespR91qY5Cu/qsuhpzCQUai4LoxRwqHQqcvDvn0stVExU9F2aCvfQpsCEmsrxM5Z4G2+kImFE+55Ap6md++U7wbsFQMx9oVuBYGpru/DewAnTzl8AhoEGlRS/mpPh4cEHg8ODk3+F6Iov1/BU4HVgEJ8McyPJsuxN+CrwN7MTO15xqtISh6WbHUjT06aByDgMnrqKX07ic0DpPOQg+Bk5yVeJP4DpoiWGBcoyWhLnVcWQwG+aBo4ALI43N9rNj7gFvhd8Djc3O+xXQSAtBAyrrKHgCwsrop5z/EZwJS+AP4dcQ7v+A80NhVxE91VngQsCO5XD6n3AFaFTe+xKsA+/rxb4MhaQ04DbH0bAUVOIrYI9dDyrP1ag9W0/2L2DP1dPtKqLX0mNdDA+B3n4zbAD1o570cnZEpyJ/BfOhpWSsh06VoYJehIdBRTnB1/hcGDi0anx3gkPBv4Per9YynygTRvRSztE0KPcNnVp0QtCRo8LTcBP8I+jx10JLLZQsZCvJHApjb9wfVKTl2wIq8klwWGgpBVKeZkoXmc0DdbQf6Nl7Qb2sgtWgvgopNFBooNBAoYFCA4UGCg0UGig0UGig0EChgUIDhQYKDRQaKDRQaKDQQKGBQgOFBgoNFBooNFBooNBAoYFCA4UGCg0UGig0UGig0EChgUIDhQYKDRQaKDRQaKDQQKGBQgP/H499YXL4mLqMAAAAAElFTkSuQmCC;" vertex="1" parent="GddeR_gk6UWAWkvnxlwY-41">
          <mxGeometry x="8" y="8" width="64" height="64" as="geometry" />
        </mxCell>
        <mxCell id="GddeR_gk6UWAWkvnxlwY-42" value="" style="group" vertex="1" connectable="0" parent="1">
          <mxGeometry x="961" y="260" width="80" height="80" as="geometry" />
        </mxCell>
        <mxCell id="GddeR_gk6UWAWkvnxlwY-36" value="" style="ellipse;whiteSpace=wrap;html=1;aspect=fixed;strokeWidth=3;strokeColor=#7F7F7F;" vertex="1" parent="GddeR_gk6UWAWkvnxlwY-42">
          <mxGeometry y="10" width="80" height="80" as="geometry" />
        </mxCell>
        <mxCell id="GddeR_gk6UWAWkvnxlwY-33" value="" style="shape=image;verticalLabelPosition=bottom;labelBackgroundColor=default;verticalAlign=top;aspect=fixed;imageAspect=0;image=data:image/png,iVBORw0KGgoAAAANSUhEUgAAAKoAAACqCAYAAAA9dtSCAAAAAXNSR0IArs4c6QAAAIRlWElmTU0AKgAAAAgABQESAAMAAAABAAEAAAEaAAUAAAABAAAASgEbAAUAAAABAAAAUgEoAAMAAAABAAIAAIdpAAQAAAABAAAAWgAAAAAAAAEsAAAAAQAAASwAAAABAAOgAQADAAAAAQABAACgAgAEAAAAAQAAAKqgAwAEAAAAAQAAAKoAAAAASqnDWQAAAAlwSFlzAAAuIwAALiMBeKU/dgAAJT9JREFUeAHtnAmUXNV551/1ptaO1EhoQVJrQRISQlgsxmIRMjt4bAib2SbYsbEdMvGWjOdkZmI7OcmMZ45P4pyEBGI7HiODZcF4HMwORohFQgaDDNq31r6gfUet7p7fr7peqygkJLWqqvtV3e/w03tV9eq9+777v9/33fuqiaJgwQPBA8EDwQPBA8EDwQPBA8EDwQPBA8EDwQPBA8EDwQPBA8EDwQPBA8EDwQPBA8EDwQPBA8EDwQPBA8EDwQPBA8EDefZAKs/nK9fTVXLj3aAWqqAJ9mc4xDbYSXogCLV9Dqzha3UwFOrhVOgPilWhKs4DsAU2wRpoAF+/D8FO0ANBqCfmMCNmLNDx7J8PbkdCX1Ck+rQlw3a2inQ+zIV50ADvgRE3WPBAQTxg5LwX3oRYjCeyXcT3/gso7GAn4IEQUY/PWb047Fy4AybD6dAdlsLbYMRcCXugEYyslgFDwIh7DpwFlgObwej6KDwHOyHYMTygQ4N9tAf68bEi/QIo0p6wFmbCu7AMFOk2UKjWp5VgHWsEngOjYQJMyexfxfYUqIaXYD0ECx5otwcU5RXwEOyFrfAa/DWMA6Pm8VgXDjK6fgOeBaOqKwPPwM2gaIMFD7TbA4rxfojr0JfZ/2y7z9b6xSvZzID4nNPZv7z1o/Dv0TxQebQPyvz9Cu7ftPxluDGz/w7bH8CL4IxdobXHXKISo+hAMNJ6rtfhYGafTbBsDwShZnvj8H4Pds+Hu2AsuBb6d/Ab2ADtFSlfTa+j7mCrWCeCEzP7wXJgJSjWYDkeCELNcQgvXQnpA38EF2VeOyH6e1BczXCyZkR2QjYSjKhO2GphFuyGYMEDx/SAg3c4LAQFNRtuh66QT/M6riI8CUZoI/V54MQrWI4HrMWCfdADrpm6nFQHRleXn14G10fzaUZm694lYBR1IEwCo2uwHA8EoeY4hJcK1bq0CnwEugI2gstJ+TSjqAK1Ll0DRlIfDvgoNliOB4JQcxzCS4Vq6jeaOsGxlnQRX2EVwtZx0tVgKVAPrt0Gy/FAEGqOQ3hpCh4ACsenTS7yF9Le4+QOCK/nk6x818KcMvkWhPrhPjTlOwM3ovqTPCmkeX5/A+D1TP8KNliOB4JQcxzCSyc5capXNIUWTvY1vHahSgxOnVwLQv1w37ngvgsUTfcMbApm1qTWxV7PyVVY8McJuRaEmuuRKNrHW/6aycjmDLzQy0We35rYVYVN4NptsBwPBKHmOISX/j50aebtQWzroQasIQthwzjpCHCd1jVVH68Gy/FAEGqOQ3ipUOfDHvCHKaPAZ/KKNZ+m8BWp5zeqOqF6G1wFCJbjgSDUHIfwUsH4TN80bDo+A66GeCWA3byYqwtTwIcL2howolofB8vxQBBqjkN4qSB7g4JxYuOPRq6D0yBfa5xGas93I/i41kmUQnWpyto4WI4HCr30knO5RLw8h1Z+FS4Df0VlyhfFuxiMtidrQznBHaBQ/TNrB4fXUqwbIERVnJBtQajZ3oiiT/Ly82Cqd8a/CLbDIPB3o5pPqjam99r3z0i+dgN8ETynUVRcorJmdd861esGy3ggCLXVEd3YnA+3wxXgo8x58Dg0gK8V0SnQBSwJdoIz9eNN1UblifAZMJIaudfD8+CAGACKuDdYG/uZJcHxnp9DS9eCUFsX9YfTxV+Da0BRroB/hF+AKwCaIlKsztJN10629J8opmxBOaO3/lfUPUARjoY/hNtgPBg1n4B/hjngda1bPc7tXlgDRlgfBgQrcw+cy/1PA1O6YnsLTMtGz1hwpv7/Bka+Q3AAPF4h3wsTIHei5azeFQOj9I9gA+wHr7EWHAiKX6E7ubJufRg2g8esAtvhtcve7Ihytqnc/F1wHRjRXgXFYqQzYipKzcioYL4FfwD9wChnVPS47Rl8qmU5oPi6g2K31vV4o6TvK/Z/B8W7GhS9/VADCv4LcD0YtZeAx1mCLIeyNUd9OZqz7PPhVlCszrjfgEfhN7AOsk0RnQ4eZ7RTkArOetL3zwZNkTaBad/vaHsyGIHrwGv72V6IB4LnNMXbhp7g6xvgLLgFFPIvYRX4WdmZI7yczA7vAcPhT+BqMJIare6Hp2AlZJuz8fHwDbgUTPGL4WEwIm4DJ1Y7YFcGI6zR1nO9BW9DAyhUI7MCV5gbQcEq7tjiczooBsAoMLpaNqyBg5B9PC+DlaIHJnJTj4ACMzrNgz8CxXMkm8yb1qKmaI+fDXdDnI2sLxWV0e9iuBwU9DnQD4yeBgQj5Y9AcXoexf2nMARyzePrYQYoeI83mn4eFG/ZmQ4pFzOaTgUnKEZShWlNqnieAIVj3Zlt1q7WjH7PyPoc/DizNaUrIDGFGxm3gDWrYjTV+168hOUxK0GfDwRFPBw0xejx2WbEXQjdwfrWqDoWHDBeZzuUjZWLUI16RrvPwpVgp/8Wfg6Kz3SbLVKjn8ffAVNAUc+Fn8GLsA4UaGx+15SsiEzRbnNTtMcrSAeEg0aRDgUnW75eC4o/bofCVvC+Z/s9dgScAk3ggLDcKAsrdaEqgB5gnfcVuAqsE5fDA/AUrITYPF5Rjof/BFNB0c4Ha1hFraDaa4p1PShYI7RRdSQMAIW9AfaBQoxtDTsK0nYMAsVqXe1gcIDlDgjeCpZED1g7zoC4Jn2X/XtAQR7JPs6bj4GRUWEZSe+CKsiXVXAiI+NPwKjpdWzffTAEcs0BpEBtlyL3+JVwD5wGJW+VJXyHimEKfAmMpEakV+GH8Gtwhh6nWXbT6dea9F4wknYHI+iP4Fkw0imQfJlRcymY1o2oRtfRYMq3Bt0KsSlUa9Z3wEhs6SITwAFV8jVrqQo1FuntdOKVYNSZA9NB0Zm+s0WqKBX1HZmtYvD4R+BFWAf5FCmnS1/f6GjNqg2HYWBpolki+Fl83Ub2rUt3g9HdY/1OH1Dcm6G9Eyx14EAeBEb0+LwOAs8dt4HdjrHOLFTFVguKxs4QJx5udWpXsMN0otEpNj8bBUbSK8B6bhn8EJ6BlRCbkSquSe9j/zLw+9ak/wwvwBoopFmXbgUHiwNKkRgtFaZiVSzZ92d7zAYer6jqQXEfhAbwe9nH8/JDpt+s3QeD1xsHH4NJcB6cA/rFa5lJjnU+Dims2eDOZIpTFJ9ts+POgGFgZ3QDI+EeMMotB0VoJyk6B56z47+CKaCzl8D/hidAQWSbx3v+b4GidmDMg3+EX4IiKbQpgrfhL0HxfRKsq/8cFIntXg36RPP412Aj9IML4YLM/na2z4GfHcn0keZ9j4DrwftWmNbM2eagfhMsK/Rvh1pnE6piPBumwgQYCHZeDdjWCtDsLCPH+7AT7Eg7z848FxSpEWM2TIOnYDdkm512JdwNl4AifREegmfB8xfLvB+j5PdgG3wGBsHXwYzioFkMsZmOjbZ/AV+Fa0FffRvMOo/DCsi2al70gU+B/jWKKk4xO3m/e0Fh2pYloM9sW4dbZxCqo1vnKrCLYRKMBqNFF7BTFKPRzSUZzff9jiJWvDp9bGbfztD5ivQReAHeg9gUqJH5IrgDJoMD4RXweLfZx/Oy4OYAc9AtAtugOG6GYXAreI+PwnKIhaOoFoAD0SyjWEfC7aA9CUvTe61ZRh85MD8OI6A36FcHgOddA5vB92zLWjAy6/8Ot6oOboFCGwKK5UawPjoVTNGrQMfJBtCBClWh+T2PG5DBfTvJ9+N7shPF88Tmd41QivrzoFh7wkL4IcwCO6yjTBG+AQq3C3waFNjNoGB+AYpHP3iMZibxvhTzH8BEULi+5/Her+L0XFeB7+tTB4VCngv6qQEcoLYhPje7wUxF4+BvYBs4io0SOnE63An18FFWy4cfg2/CbNgBnseOeh3+EIy8dqIdZIq7AEylHmuH/xa8loLtLOZgGwzTYDU0wjr4MtRDJWSb96cvTfkOasVm6v6P8E9g1NQnZqUG+D6cB8GOwwNTOeZBWA92xCr4EVwNZ4CpX2EpsKOZHarABsEE+CL8GuwoI/Db8FdgVDG9e+6fw1Y4CM+CIq2DOBKz2+HmPTsIx8APoAEcVCvhWzAacq0Hb/j+v8Ja2AfLYRPsBv38U7gGzD765KN8y8edxzqic6q5faPgLaBwFMlboMCeAdPwHjACHMtMh3aCGIm3gx1jR3nu0+F6sJM3wlT4BHSBWfAIvAoKtzOZqdfMsBR+Bt6naX0I3AZG0P8LSyBO02Yjj1eMDsobYQTox/nwNDwGfmcXOJjbrOWBqHpXZdQz1S3qf6iJIFEd9UDFNZy9JdUS7alORdv3H4w21+2Mtnx3W9T4ne8cV/+0nf9kd4o9onSgkfIb8GkYCDrux6AjjQCx49ltl/XkW3bofaBYvZ4iVoyDwEiyGP4BXobV0JnNNG+aNvIrVge2NeUMeBi8NwdibPXs/DHcC/rCe/VYyx0zTJu1fCeq2DEx6lXVFA1ubo6GIIbBxNgRSLA/6j4llUoLvoX3diPWzRWpaH1zKlre0hytP3QwWt93b7Qp9aXirI4UO6L2xUvnwy2gaN6Fh+AnYBTNhxldjcp/B97fzTAqw362drIifQKsUzu7GfmcYJkRToWLYCI4AM0gz8Ia8DgH+aVwIXSHRjAiT4dlkLYWpTcjqt7WI6pN7YwmtFRFN1ZURNfAmRA1oVLEGHFchFgjBBpV8r4nTzVFu3jv+arK6LF93aIXW54hOu+MDqRu/WCEzlwqbxtHazHtXC72X2E4bABH+YOguE42knKKD5g12jawzrXU0N6EfwOv68CgOxJjlgJzoQ84yPuDg34v6Evv1/f/DBSqGWQaKNIGsHxI2111UZeKrtH4mqboaxWV/KVDKrqguYUo2hJVE1lTbD9gCtb3oIX9ypZUNJDvXZiqiSY37om2HGiOtv6Px9LX/8D38vmimBHVeknBSDW8CEa196AQZjo0shpxjDIDwAmK105CJKWZbaZ0vJ9VYAZSdDdAPXwWNNP6BXAm+PnvwSBgaWMmMUKmNj0UdetRG11CCr8dgV6C+AZycv2SNi90JFOsGLE1qqYMqGOE9+at3qmqqBdv/mzXo9FLvW5OL3mlD8z3P8UUqg78BDg7XQozYR4U0hwEduCv4DYwdY4Fa2VTpSTFlIq8BWZCuQXGwE1wdgYjrXXp0zAfFFdapDyfq6mtiS4iIn6Ody/j5vu36s8jjt8y36lCvP0oA/oh3FRLU1S1dVq0p++d0Trea89pP7IBxRIqFU76x8jnsTWF/QZ0pum30LaeC/wUrgBFasca3deAaTNpZrS0BDC194PJcA6cD5rR83V4whdYWjRrZ0S1NYeiXt2qoq8g1EsQWV0+1GSkRZgXpyqiyqoqSrinoukt34kaU3leFVBAhTZHdB2MhCGgUF+A1VAMczAYwZfALjCqWgo42UiqkXnTS3B/zvZx2Jh1IwvYN+quzXpPRQ/uWh19vaUiOhtxmbZbJexOe8mcI13TpqJxldXRPTu3R4M3jUjPC/w0b1aMiKpQR4Fi1SWbYDkYEYphdqrYgZYffeBceAqSbNasZouHoSfcBZYDc2AhHIS07bg/6rN/SzSOevI2alNLg6q0UDOf52PD+Xpy7uGEoS92rUwvNxoc8mbFEuowWuzS1D5oAGfjjVBMW8TFrFkHgOm/GPfOZQpmsdYsYYyoDkaF+jtogDarPBQNbGyJPlHRHNWz7GS2bg0ZhhBfHGnrMbEd7Zis95tS6VWsUytT0a2HGqOZ6x+I1g36Uv5WAoqR+r3dQdALdoMpv220s18MY96QnjHvYNsNBkMtJF2s3EK6nCKzpyW3nW0DbIC0ocoU66LjeTGZJ06tk6q0Unnno7Z+FuOZPurYzOdcq0dNVTSiKhWNrj2QLrH8JC9WDKE6Xk23CsN0ZVRz9BfTdLNRfC8447c9Dp4k16k0P23D+Nd0brZ6B6zDD9uD6TQ/hqh5Zqy1wx/mf+8AUz2i96RDLVF9Ps9eDKHaXlOS0cvI5qzUbTHNPrLUcOs9d4VvwlRwcpVkM5rWgUFgGSjY2FLbt/OYuiI6jWhxSvxmIbc8MPAp1qiayvTj8bxdqlhCVSCK0+jqgnuxrsul0uZ1HSya+0b3S+EeuATsxPhzdhNl1v6uTbuashrayiqL0eaaaAAbhazfC252NMtVA6hV8xoAilGj2XZHuUI11faGYguVS6Zr0y5sLTtci/TePwm+txvmgTWenyXJzA4K1XZvgTahsh81H4r68qy+B2unh+tMPyigsVxladWNjkezbdXtSV2xGEK1gTrQ2sk0NRCKMrq5TmxGS2f7DhQjj5MqB5DLOpPhdPgK/B4+WOPxRic3a27vz9LG9O99tVnLoaiWyFrhm+n1zrZPCrTDhZorecyaImvdSzB4MD+rO8UQqj5aCUYtU+xIMAoUcYynrzWKa54GClFB/gquhlio32b/QXgZXO5JihlJ9bFitT/db7PmPVFjcwX3b2jzkw982nZY3nY8PU+pmlmuOkR+ytukuZhC3cQ96MxBMBQUw04otDkgZCJYN5neX4cXwQVzbQpcCAfBY18Ao67lSmc3M4SllSWMZZUR9rA1R3t5Dr8vnYPzJpvDpz/iXkW0F7Ee4KeEebtisYRqka8wjaqup54Lq6AYQrUDrZnGgkI1mr4Ktmcd6ExLgAngxMrB5MqEYlbUxX4wwSVPyPSh7VWkrg8f7lOGXMt/jjbxG1OX5fgBX+HnBumAneKpY3O008tz3bxYsSY1jvrFMB8c8dfBSCiG1XGRy2EgeL8bQKHaeXtgJvwpLAMdezF8D8aBk5TObg6mraBfh0Pb2rBC6bI/WseC/2bWNS0RCm5c0xJjNY9TnZfkzYolVBv8BswBI9ZEMKoWWqxx532RaxlNFeNsMFXacQrTfSPrX8JzoIAtT/4GHFDud2ZbSeN8mKFAzQo+eWuzvhvT99NAR3tcQU2RdqF3EeqCQ83p33Pk7XrFFOoqWj0Xlng/cCVMhVooVDscCFfBJDAlOlheAQUqmnWoE6zX4CcwCxTxOXA32EZXDBxgndFW06i1YPuGgOnfMiBtqRlRE85dyPLU71imKrQ14sx9LZXRvL1N+f1B/OF6ptC30CoGU/+/w51gRHXCshDmgZEsFg+7J2V2iTP8y+FacDB4nZfgHcg161Qj60xQuNUwGS4CfeTnL4BpthE6kylSyxnLmL5gyeI9ttX/qcZoSaoyeo0J1We4uxp+mFKVnjLqbT2VveXlUS332NzXFek5yFss9i+e1iO/qb/YUUJnLoAroD+YVnWsUUyh5rOOuo3zfQEcENr34RnY5Iuj2EHeXwdG3kvBcmEkGF3NBqZY1yo7k+kzI+kIGArOBxSvfk7b966J9u5awd/s7Y8+1rQn6tWyL+ragrfZRh/a+t7RONp37Ll9yH1ftLZ5V/Ttlj3Rok/9Q35/FF9soRqtFINicXKjCIwCZ4Ii3gz7ob3m/XjOe+BuGANONP4fPAyr4FgR0ejpMUb5U8C03wcmwW7wfLugM5mxzbZeDKZ973M+ILko+u7MqOXrkxBwS7S4spmB2xz1TUdV7zQPpDgHTxRWcv4nmrpGDw+qiXZ+9830mb18XsyOLbYZARSqotWpY+F0qIOe4PumWI87ETM6m6pvynAWWyPgc/CvsAQcDMcyE6FRaSMozB4wHIZBL7Dzbf/xnIvDimJGecuVy8E2OtAc9Isgbd8fHR18j7qRg2oRVH/e7Me2Egih7YO/lUpPLhgl69h/Fmk+8sNp0dKpb6b7MH3dfP3TEUK17UbNWAj92DeqKtgzQEdT/6dnsU66bKMRI8bPqqAb+D0Fatqzk26FT8FQWA/Pwy/gJVB8J2IOGMsAB43RKs4AlgMmOz8zOxiTOtq8N+XmfZsBRHOC6H00fXdB1PKDW6PG3ZujNUysKphY6fde1K36Ut+esPGl9/n+Js71AmeYzp+zzpq6oDD+aFcDT/iOjv6FWj4yPf9PuBAUhKYAXoVZMBeWgilXgdvmrmCnjIfJcDUMg3jgGfX+Fn4Oy+FkzHOOhgdgIjiQFsM3YA5sg85gRn4H+oNwHiyD78HjYAZos5U3RKdUdYmuR6F/zVLS6Si8+kR+B2AHuILAf1v4Sd/DjVXR/YOnpX3Sdo1873jNjjRFoOiGwxS4Ci4CxWBqNfUavQ5ksBywzdWgyP2uHaTAjbQNMBN+BYrJDvL7J2Oe15JkJHwVLgfbtwZ+AM/AKuho05f65VtwGzhw18N/h5mwEdI2/5aohnDaF2eOIrp+CodO5YNx0EPB8t+HTKcTPdNGml/Bzqv0xLP88dWcQ32i9QMfjPbz8ZG+2vqlk/w3c+mTPEt+vm6E1FlGrTNhFPieKUpRHsmMnOtAxynM+fBOBj9rhnyYflIIl8GdcC1YArwKj8CTsBo6g02iEZ+DW8A2PgsPwwuwAdps5WVRbfVp0RhG4llMhsbirKFNLen/B1Udj117MOGqQYz8lVW6Lt/G/mbEuorXK3DIO2zfHTgjv+ulbY3L2bE+6SxmRxulXgEFOwHOgCFQB11AwToDHwkKZxcozunwJvh9o2++zUhhNH8ZFD99m/7fN57PVhH7uVHcMsCypSPtbS7+a1Ck18EUsI22+SUwy6R9NHxmejuv5Zbo3U2Hojr+SvVMjhxdXUGN659UV0Q1CLaZKLuX15sPNkUNrJEuwgGrh8w4qdUZmlCapkD7wdnwJ+AEJ57Z/oR9U3+xBp0d7kB6GraAwl0En4XToDOYbbSE+h04mB1IS+DP4HRwkCfKktDgOGIZqXaAqd4oOhyMtgNhMqyEzdAEhTYj0mwwavUHBXoB2L73YCd0tClQs5PZqC8MgLPATOXAt62doZ0049iWBKF6F0YEBWgU3QOK9X0wkloeDIWu4OTLCYRpupBmO4zqUgNGKQeNwrWtitXPOtL0j6WIbdkLvWA0OLBt70hwsOs3fevgK8Yg5zInbkkRavadmWqdKClWBWlE0+GKVdHYOdZhOl3RFMpsx1pQkN3A648AI5hCbgCzQEd2vv5ZBWaa/WB5ZFsd3BPBNju4zAhG3EGgkN3vDrF4C+lHLnNsS6JQ47sysi4HI8Yl0BvGgU5/FYwodlQhLRbrCi5itLLTx0A92K71YDs72hy41quvg0ttlgJOSo2sTgivhuvhYjgXPgZmqwYwGnfkYOPyCSyq060+/I+RywnNb2EUGBGMsNasS8DPDkKhTTHOBqOpA2UwWLNaihjNOroMoAnpSZ/tfANehgWgCLuA6V8sD/ShGcpBrl+3ZvbZdJwlOaLqNVOS6WkD2Ak6eiQoVqOGE4qNYHQtpNmpXssoqk+NVMOgHxh1HTB2eEeavnJg6yfLI8sWM5JilN/DYjAL6LOFMBccZCGi4oSTNYWgEHW80VOB1oNRoTs4u9XxOruQtZbtsJMVbA0MBcVqlPXatm9/Zp9Nh5qC1S8N8C4sAkXaAMsyzGe7AvaB9xYsjx7owbk+DTretGv0eBrOA2su1xeLYeO5yP8BxengsD1fA8VbrDZwqdKxpKf+3J6Ia9bX+OBMGADWi5PBVGYKLnQZwCXSg8QJnSWIbTCyOlgcPEZ3U2+wE/BAqQnVWzf9u5D9HhhFjWLWigPBycMmMJ0V0qxZjeZeKwVOsGyHbfC1QnWSFew4PVCKQjXVGjXXgIJUrEa0kWBpYA3p5EsxFbr2Mno6aPSzQq2HU0GzLHDgdPhExcZ0ditFocY+N7KuBqOaNaOCHQ2WAitgByhohV1I88GEg8brWwaMBVcFHCirwMhb6AHDJZJtpSxUe0YxKFTrxbNBoRjZ4prV8sCZeKHNqDoHjKamf59g+WTIa7tS0NFLVzShc1upC9Vo6QTLEsBU61MZI6qCqQcjqmK1HCikGTFjUbpvzWw5YlvsA9cqLROCHcUDpS5Ub1uxWgasAWvC3qBIhkMvMPUadQ9AoVOwEyhLjhQMAdvgoPG1dbORt9Bt4BLJs3IQatwrlgGK1cilUH0wcAYMApetFJER9mSFoug+yhSk6b4WvLZtsGb1ew0QJlg4IdfKSajeuzNshfoKnAPWrPVwHiwHI6tCKbRZk/p40uhu+h8F1tAOklUQalackG3HGv3Zx5bKvk+GusEkuAeugj6wAH4KT4KizbUq3jACmrIVuFuXu5zNe74uUAOeX8FZG1tOKHxTunWokdRVALdGcCP77XATKNSV8HN4DN6EYBkP6PxyM0VkXfoaKCwH6zUwEW6FJlCsTrL6gWnZmbridOG+f2Zfcfu5Iu0J1RCfr4V9Sw1r433gEyknbIrTqG1UV7Di/uvgeVwN+AwodoU+H2xP2Vs5CjXudIU0CxSSfrgMLAG6Qi3Mg1FwLhh93VdMCt1a1mjpOdzfBgorzlBuxdJKFHIdjAEjr0J0FWAp/A4cOO47IMaBx/i9B2ENeK2yttix5ewERWqk/Fu4HIycik5xKEyjZGyKdD0sy7A689q0bno3ghoBFaJi6w1O2hRgPYwEBe9rj4nN6/ldB4jv2y+e88egWJdAWZudVO6mOKw3FZb+MJLFQlN8C+DdDEa3zWAaV8jWn7GoFbER1rSv0MRyQDy311H4vcCBMRx8YjYBrFV9P9uMwreC53kUZkPZWjkL1Xs/E0ztMhoUkuJbDQvByY3RcwU0gDWln5+seR3FOgKMsmeA17c9p4Plh+1zAP0HUKwOCMsEB0TZmQ4oNzPCOVNXIFfDtWANuh+MlstBQTwP78BWKKQ47INTYRxcCeeDwu0H3cHPHSiPw7+Ag8i6OliJe8C68Rp4A0zfpmrx9R+DUawjzTLAdrwJcdvc+kTrARgLZWfWY+ViRiZn9Z+D+2A4GCnfBiOVk5a5YAQ1zXaUvc+FjZpzwLKjJ9SBNa6DyCi7GzymbKxchOpk5lK4Ca6Hs+A9eAGmw9PghMmZdkeKlMunJ2QKcS24wmA7Fa+rB4OhP1jDWqooVqNtyVupC7WCHrQetf67F66DQdAAT8BDYC26EQpZh3L6EzYF6MBZDBvAvvJeFOtQsIRRyE7uFHKwBHvASPoJeA1camoC1yS/DnZ6UswB1wds9yLwPryfV2Ay1EBJWylHVJd3rgYnJheANd5v4H54HOxoOzwJZnS1rStgE3gvo6AOXB1wFWA5dLasQJPyY6UqVO9rCtwFl0APeBF+BrNgDSRFpDQ1bYpwD2wBa1gnWWPApS0zh2VCA5SklaJQnWi4mH4fTAVTvHXeP4EidZKSZPOpmBMshTkCrLkHgPc9Dw7CIQjWyT3gstNfwCpwkvEW3ATOmkvJ+nAzN4P3Z7Q1S3jfirfkrNQiqmnwcrDDrN8WwDT4JZg2S6mGM2qaHXzS5n0PA5fdloCrAdatJWOlJFQ7zLr0TvCR6AZ4HB4Do00piZTbSd/PAbY7wBrcSDoEtM3QACVzz6UkVDvqNrgenFw8CdPB5/YtUKrm5MroamlzNhhdnWwthW0QrJN4IJVpx5fZzgaf2NhBV4KRphysGzd5FSha738OfAW02D+trxL6bylEVKOnE4tvwsdhI/wLzAI7rpSjKbeXNiOq92kd7vqqE0r79hkw/SdtKY4mf9BKQaguzdwA14Jri6b6/wUK1ll/udhBbnQ1nAfWqlVgCeDEyiWtRFtFolvfGjV89n0HKFg76mVYDiU16+V+jmXer3Wp968f9MfdMAgS/4g16UJ1AjECLgXr0TfgedDKIeW33mnrv/H9ev/6QX9cDJYBvSHRlnShnoH3p2R6wBT3NizMvC7XzYKMH/SH4r0MHMyJtiQL1bYr1AszPfA6Wx+VllvKz9x+28b71w9zwRm/E0z9lOj5SJKFWofzneHG0cIlmWUQp0B2y9asVV2q00bCGNBfibUkC1XnD4VacFnGlNcAwVp/56A/XFPVP9apRtXEWpKFOgGv2wEuwRg9/EXRIQjW6gf98RroH/00HhJrSRaqKa0eXCOcBT7zDnbYA/pjJvgDcZfwQkTFCcU0B5cTg2EQP9e2PjVyBDvsAf0RR1Sf3OmvFCRyUpXEiFqDs13MVqRdwQ55B6xTgx32gP7QL/7xn37yT1b0m/5LnCVRqF3wsmnMH2L4iHQLbAIfIQY77AH9YZ2qf/ST/hoNTq4SZ0kVqpMDHW8dtjnj9ZL57WXmfk52E/tD/1jH6y/9FoSKE4phRlSXpdxuByNGsKN7wKhqeWTKrwf9ljhLYkR1MjAQrLt8CrMVgh3dA/421/VU/aXfwmQKJxTDqrmIP0bR4S69mNaSZM68NbftIf6u22OZ59c/or/qwJ//Jc6S2Gid3x0UrNtTYDzEkcLP3ffHwtlbazYzSPbWY49lHpP9nexz5F7D153pEa4+0j/+ksrUr78SaUkUquIzjSkgU9n1MDbzmk3afEKVLVIFlC2wbOF5HsWVK9r4PbdH+27uNfTnkc7D223vx0I+3uP8bnvM8+sHV0iMpL52QmWbE2dJFKoi0+yE06A/xL+gYjdtscji14XcxteKt4W8VnvPbdssk9w6aBNnSRSqznZy4EL20RavPaYjLDtKxm041ja3nfHx2efKPiZ+/1hbv+O5PM6tE8/ErjXHN8s9JMZM+6Yz09jRBpqp2s45WsqOP+eQY1rc0W6zS4bcc8efH/OERTwgLk1sayM4wJeAog0WPBA8EDwQPBA8EDwQPBA8EDwQPBA8EDwQPBA8EDwQPBA8EDwQPBA8EDwQPBA8EDwQPBA8EDwQPBA8EDwQPBA8EDwQPBA8EDwQPBA8EDwQPBA8EDwQPBA8EDwQPBA8EDwQPBA8EDwQPNBBHvj/NEnLqS9vPxUAAAAASUVORK5CYII=;" vertex="1" parent="GddeR_gk6UWAWkvnxlwY-42">
          <mxGeometry x="8" y="18" width="64" height="64" as="geometry" />
        </mxCell>
        <mxCell id="GddeR_gk6UWAWkvnxlwY-39" value="" style="group" vertex="1" connectable="0" parent="1">
          <mxGeometry x="960" y="560" width="80" height="80" as="geometry" />
        </mxCell>
        <mxCell id="GddeR_gk6UWAWkvnxlwY-38" value="" style="ellipse;whiteSpace=wrap;html=1;aspect=fixed;strokeWidth=3;strokeColor=#7F7F7F;" vertex="1" parent="GddeR_gk6UWAWkvnxlwY-39">
          <mxGeometry width="80" height="80" as="geometry" />
        </mxCell>
        <mxCell id="GddeR_gk6UWAWkvnxlwY-35" value="" style="shape=image;verticalLabelPosition=bottom;labelBackgroundColor=default;verticalAlign=top;aspect=fixed;imageAspect=0;image=data:image/png,iVBORw0KGgoAAAANSUhEUgAAAJoAAACeCAYAAADKbhMBAAAAAXNSR0IArs4c6QAAAIRlWElmTU0AKgAAAAgABQESAAMAAAABAAEAAAEaAAUAAAABAAAASgEbAAUAAAABAAAAUgEoAAMAAAABAAIAAIdpAAQAAAABAAAAWgAAAAAAAAEsAAAAAQAAASwAAAABAAOgAQADAAAAAQABAACgAgAEAAAAAQAAAJqgAwAEAAAAAQAAAJ4AAAAAJ/p2mAAAAAlwSFlzAAAuIwAALiMBeKU/dgAAFLRJREFUeAHtnVuMXdddxteZm+2ZOL7Ul9qxsZumSpPQNpCobQQtUKho6EVQaCgUkCpR8lDxQCMhgVTF8MALUkEQtaSCvhSFEgdaGhVISklThSBSJU0pdtLg2B7P2OPxeO63cz/8vn3OGo6P9xmfmTl7n3Vm/n/7m73P2muvvfa3vvVfl31zzswYMAaMAWPAGDAGjAFjwBgwBowBY8AYMAaMAWPAGDAGjAFjwBgwBowBY8AYMAaMAWPAGDAGjAFjwBgwBowBY8AYMAaMAWPAGDAGjAFjwBgwBowBY8AYMAaMAWPAGDAGjAFjwBgwBowBY8AYMAaMAWPAGDAGjAFjwBgwBowBY8AYMAaMAWPAGDAGjAFjwBgwBowBY8AYMAaMgQ4ykNngsQfYfztQOpWGtHzaceEKy4Nswz72c5My0LfB83ob+98HlI4Xlk/SCywu3AttnMgXwTCYBAVgZgxcx8BDhCwCCWctKBNfkNCeBL8D7gA7gJkxcB0Dv0fIDFAzKG9UD4U1C1e8emEq3uPgTmC2CRlobNbWeopvYIcDoAdIOPXm044LV/wh8G7wcfB2ILE9Dz4F5OmKwMwYiBiQYNQ/668tte6hsGbhfhBxmDg/Df4GSFyXwF+DfcALlVUzY2DjDEiY7wVfActgAnwI7AZmm4SB3gDOQ4OCq0D9trvBMbAETgGJzmwTMBCC0ESjRFYCu2gvNV2ivt8z4Dxo7OMRZNZtDKjZCsVGt/W6b2V63GdKZXesv9/d+o43u5eef8TN4deqYjtdXf4ROX5YuX6Y3yiT/ybGUEqxST4oozDsxAnX875+d/fQoPvObNYNHtzlTh/a485sG3ATCG+qXHLTzLxNM76dYjlD2Hx/yU1lMm5m+axb2n/CLXEyaobNAmQgGKGJm/mvuDtoP/8pV3LHe3pcqa/XZXsyLou7KiKoIpktROihqa24POulYtkVK6wz/F3s6XMLmYpbJO4iYfMSY6XoFssVt9Db4ybZtpAru6XKopvJLLjFXuLt7mUA8ruklTGvmKQ+gxJa9gn3FibPHi1Von6arqGuTHJEGeWPlohixRCUQ1AKL/JH4ssjmRzr2UrZ5SosEeEcnrCE0HKs54rTbrmUZXsFkbFdgmO/ZdJdpuleKhVdHsHPke4iaS1kEGdvv8sVEG1lO6IdcMv7ii6beTDqW67kxVaaMxBSH81lizR9GXc+0+vuRQRVodV6X9Gith53OmzqQxR9LAej7YpbEyRic4jMaSlRSpxaR4hlwovljMshsBxHzyKqBTzgEmkVGCktVHrwlIJzs9v6EVoRIebd0mTGLUz+Bc01Qu3vcVn2kefNKS2Oke1bdsXiEgJd5rR2uPw2KsDYkivcPhiJs0j/srSVvGhQQhugwGjazlOoUV9LWmmHRcJSQkqQlL3Y+NVD0ADbBxjz7lSUepNOycuKYKP99bPazOrKhTzkIs33AmELpLNA2DyJyhtO0q+cR6jzvXk3n2Pb7h63MJFz88Rd7vlDl535rMtXSg4H7oq5XlcpZl2e7kKhHxBYRLzlpbLL37rDFc7sdaXRKVd6ljOgPxvxw7G6xsRlMDb3mNsHwb/Qv939Gcu9EkjbTULj6mxFF7zaUFwRgfzxRCKi6jozgRXQgxwVplPR+RQ4Jv+rfcqMm2ObrhVPFysMeCpuFg+rAc5V4k7h2afxvLM07dMIdW6gz80vZd3yjjlX2L+NqrHLVc6fR6XjrnLbTa5ymoTunCD5/a5ykvWP3cVhT1SrRy0LhHbGPD+dOXrDUSf/1t0M2T8+OOgeR2j7WW+/tVlozTJY5p4WBh24qdgYUctdOz2vwTLesYLIot9aUjglkIGHCsIr4V5zpLZEkz6HCOfolU7nr7jJ0hxArOw5zeDpKt2AaTBTKrmZXNHNbUOgR09GV11iM5NGYFBN51zB5Yf63KiajUS8mWc0CQH7tFtbqst4TSXXD684v76SVDW/NKRRFMYq0Qi8VCm4Ik20nGSBUbV8dJ6Ey4i0SEyFFXf00zwzCLr0AAMdmnmwgBjnEe8i+6k/OoPAZ1H1PPtPDcL/nsei+wNXDt+OlaCEdnzIFa7Oc3F9R9TX0ZWCUK5ctIPrltOIdFUVV/0+0p+gbmM/A5mqEU+B3uQGIzn6gOpPRY/EhwhziCuH+JaJqzucNVqXCDVify1bck8QNly3e1tWgxJa5gE6utS6h56I7rY9Aod2I+QqxSyvLz1G0J/mliFu9W6aihuMoqIq/q+otI8f1GzpVHfWtN1UO0Kyygn6ynR+xzjjXERESLnbBHmpFyaezQl0VeircHIVd6ZcdD9M4jRDE1p0jtS+S4hMk6nJWFLpJpPbVFJFcMzSuAs9824kiQMGKbRC3l1EbFnTQxJFHp8mA4Rh4eDT0S1a8ZE2EBqk0BDYCJ1WzbonY2omzFYYkAjwZqfxaiNQngg7QQqNIdIYtSs5oa1QnOBKIsV1fX7bURfpE+sS3SnuWLh4/RHaExKk0IoFmk6G2+05xQ6l0g4FtJD1duiZ0WYesf3vYDmZ/plOI0ih9Q0wl8adE7omaZYsA+qe8P8iI8+RAyej+ctEDhik0HZ9Irr+p+t+3e3VEimy9iZamxH/Ppes9KaAxCxIoVHDKvTRdOJ6Ct4sIQbUunOLkyuX3XdpQfSAUGIWpNCis+XiMD59LrEzTzrhdnSeWsijxLIB08V63VXycn+Oi/IJWrBCKxa5bUbPCJglxoAGXFygH+/vcxf2bUtm/sxnPlihMcVxKdG5NM9AUssNuppWs7VBx6kHtr/LiHMqc1KXOpOzoC6q158mBI5zoXdWA88NklmfrK3XGFA9UEVmZP8MXi3x99QF69FyBe4y5fbolBzDlhMgvHKXOc83OPfskaFkm02RG6xHuynHY8OD3Hu/5SSQzgnTSpSYO5s7dtK9yHri9TlYj8adtrNFbkWm3ezOubSU2vv1KCTah2cV6Jr8QLKWd0ta3sEKLfNJHmNDbPQjdIuxWRsZYI5S1zav0v99qY3JrppUsEJTriFDD1t0p9DW42pWLar4jetxRcoamCpUmKhNyYIWGjVuhmkOPY5m1kYGuB1IXd/L/Vn3ahuTXTWpoIWWL7hpht/TKTmHVYnaLBsjLjVvlnFnDz+Z7GWnes6CFhoTiZP4eD2naNZGBmhuR7jqoueNU7Ogi3A5zwtVmLgNOpPNimo9nadmaa0SvlZv3weZ/D/Lmw8TeQilWVaDnUdThuXR6KdNdaXQmjHe4XCeQFEVuMiDxa+nmZWgyzA7wUCA21e4uyD+xQJpMrXWY63V1aw1/Vr8tTpORvETYHhkJy80TNGCFtrRz0SP3OmdEnqU32yDDIhDhPk6LcXwvV9M991uQQtNvPIap1lq4FTyF0k2WIpdsDs86ibHVxjJD6ed3eCFppfgMRQfB2YbZEAcMhh4hSvcqQst6MGAeC2UorcpjvV22+te1tp5WqeIVP9aOZTi4c0miXv+eV53tc7DrXu34D0aj94tMCC43HVCW3eRJLOjmk082imWVx5I+CbHuDMIXmiQM4fIxunAdpellN9WvJmI0/wZcb/PxacrnSAyeKH1Fbgpr8ykbUoF14lCSOOYUUFn3Pd4KVWiTzs1O5fghXbTdoRWcVf0aiWz9TFAHS3xEuo8Nyi8eminm11fKhvbK3ihvTjNdwHoxOb19YDW+r0bY2QT7g1xOW5yPMXI73Im5fkzT2fwQrvnQVfkbdR6vfoENVPPqnSHpeSBW+lREGeBhwO+ne+NXrbcEf6CFxokVfr6XI7BwChl1z1C60hxXn9QCZH+LbNE7tmh3uTerXH9ka8NCV5oyi4CU/9ilNXuEVorrubasljXrxYcp25yXOSLMC/sHercK+CDn7AV+5Wcy/PK6Au8W1+kma2NAT6r4YaP/yPvBY7u4F7bzu2K3RUerTwQ9S3O6Yt3KTmKdvHb0XR0yQnMsPieMsKyBQeYTJa7QmjTCy7Pd5VGIEofJTNrkQEVLnRNMbXxXy3ukli0rhDa5TFXvDrjxmChe+5LS8l33KjekY0JPtGT2mN1zZTaFUL71KNu9298zv3i7KLbzoXh7rAbKaBNZ7GanrlhdJ4CvnDx5uTeTdvqaXTDYGDn6QvuTj55/csTs277dr7rwT1qG7OURLCxTLa2t04lTmy6ZIfQxnm07tW0b3KMy3k3CO0Yk40f4WOsx8e51/aNe1yJ71nK4LG1HluV8/+Py4PJ+hcVUFKaw5MwIxNZ4yG8LuLCWw1TwhmdEf8r0ZlpXV/Bi0Kj8B7Cz9O3PVXNRmf/hi60XdDzHvBhVFUavepevv2Imx/kW5WRylQskWRY1ghmrWp14Stx2SJxMhIr66NHFMxq5rfqKGs2dvL7X7Mvx74mnLxV01d4dd1v1xn5MKWxEq406vYrU++qp6jw2tEQuqrjtyng1B4Srh26KxfvJ9f/DDQIuAzuPsKHyCBTGlk3SCcNW5dA08hYJ44Rskd7A4TcD94N9KGFv8K9Df/2CebUHubXBkwiveHuPgaRY61xu//tI2u/Ri/rt6W0JEvNcp9SDrrjMJ8kmy8A3dbyLwBntjW/38l5myXEwK2kq8+CLwDNAf0WMOtiBkJrOtUACb8C7gFDQP2z3eCXgLZ5U9517fNGzYP2UcdY6dQb/eUovcbrp2sNV9rKQ+MMX7PwZvmOC1dYY75bPR+dxzmgwUDHv9dQX3Dkp+OmLw4fB4+BtwJ9DVevrZoAjXlVwYrMViwursQhNKaxWriOFZcPhbUjvDEvG8m3hP44eARcAh011ZiQbC+Z+XWwH/Aekui1oiLsEKg3fbZZ4d4LZOs2SiiNprBGIShOO8JbTcMfX+Lx68qDt7h04sIUX+GNolSYjz/IurjZB1RZO26hCU19spfBHwBPpC8YXzgiU97u58FbgOJ/GeRAM/MFoO316SjcH8fvq7C4+MqHzMdXHJlf+nSrodem4cN8/Ma4zcLr89EsDZ+W4grqCnwWiCNVRp9vVjtnoQlNfYlngC9MMaP1RrL06Z57wTGgZuEpoPuumllcGiogoTHt1cKVvgqz3uoLuj5cx1TcxvhxedF+ceFxYc3iKh+Kr5dLfxo0HpegzlloQlPHt5W33GjKQx5MItFSj5CtJjQ2bymT2CQ0Xwk6fvKqAd1ucV6j289p0+U/NI/WCsHq3GraYxtQRbkJHAWNHq2+Ntc3Qb5J8U1Ns+kN36T6+L5S+nCfvsLrxe7jq3/ULFxp+HisRhbXn1JY3PSGjtmYb+VH8eXNtgP9Flc7gcq5MR2C0rNuEZqIFWma/jgA1NHdAyS2N4FfBRqlNjMVrBdKfZy4cC8ALyQff63hSltpNKYTd0wdIy48LqxZXIV7YR9kXcc9BN4G1PfVNJEqo3jy58KqWT0DEtTd4CQYA6qdnlQt9bsequ0qpFbg02kW90bbm+2XVrjO1Z+7RNTIjaZ+LoAvAI3S5fVSt8balnoGWjjgjxDnI+BBcAtQU6mPXIwDkajfiiOPp/ORMDQqPQNk+q1CbyTYh3tP57lQXJkPVzyZX/rwamg1ba3HhStNn66PL2EobivhirtavtWFECc3A5nyvgxGgbyXmk3NSaolECenwefB0yDVV1eF3nS+EUI+DCSyHwXnwN+BF8Ek0IhTk7cS2s+CnwAHgEh9FnwTiPy4PooKWgWuwqw3L4JWwyUEL9r6dJqFKy9K2wvX7xOXx7gw5Vtpqy8mXiQk2Qj4N/AcmADavg0cBbqc9zHwTiDTOX4dqElNxXQioZrIkHA+Dm4Dr4AvgX8FrwER6U0z4aqtl8H9QDX8CNBjZiJdYttMpnK7A+g81fH/H/AE+AbQOddXEnl8Vcwx8AkgsV0Bw+B5sOXtFhj4PNCcmZrBh4CIVY1uZj/GhkeA9lHn99fAPrDZbC8n9OdA4rkI/hioYjUzCVPNrLi5BOT9/gTI4215+ygM/DuQYOTmRdZqImNzZB/k73NAHu+rQDV/M5maTVVCeST1Ub8M7gOt2NuJ9BRQs62W4c0gFVPzFKrdRcbeBFRrvwWKoLFfQ9B1piZU8dV3U9OrmtyKQInWFaZugkaPh4HOS83fS6AV+28inQKqvAeAWoBULGShqclTUylSXl8DGxpNXajF38NyJ5A33Cym5k4iU9mprzUBNChq1UaJqH0kWKWTioUsNBEqgRSAhuytmjyfj6/95dk2k0dTmfm+lboHwlpMotQ+4kYDiVQsZKFp6C1SNAekzm+rpvi7a5HVhxE206hTFWkOqBshb62uwVpMrYRGohKb0knFQhaad/ES2TvWwMZh4t5Viz/MUpO79cP92qauXajy6bzktSWaW4H6W62Y4msAIE7VJTkLUrGQhfYDGDgHDoL7gIbvcvermbyZRPZeIE/2HSChtTKIIFpX2BK5HAESiSrQu8C9wDenrF5n6joIiqtRuPpnmnMUx1ve1H/4U6Caq07vo0AErWY/ycZ/ABKWmgX9VvOy2WwXJ/T7QF5fYvsiUEVczdRX1ZSGhCqRan8zGFAN/Ckg4WhAcBV8CSissV+iJuE3wVNAHmwM/CVQgYTstcneukye/QD4GtDktCri34MPAAmq3tRMfgg8DaaAhPYFcBtIzVSYIZsE9DPgQXA/mAA/rEEz3CJNHkv9jtuB5pc0iHgSfA68Cspgs9r7ObFPg/eBIngFvAbUtIoHcXMcSFTq54qLk0AV9gWg7kUqppoRsqn5+w+gpnAavAeov3YPkIcTuWpODwI1sRKWaq6EdhpsdnuOE1QZqr8lbt4F3glUIXNAfVaNwOXVzwFx8zh4CaQmMo7VNfNLEtNx8FGg2exDYKAG9VEWwOvgGSBhngFbxSS0t4KfA7oSchgMgV4gbtS0qivxn+Dr4CLIg1Qt9KYzjgwReRs4CkSyms+z4DUgwcn7bUWT11Kf9C5wC5A3U/M5CtTdUP/MzBgwBowBY8AYMAaMAWPAGDAGjAFjwBgwBowBY8AYMAaMAWPAGDAGjAFjwBgwBowBY8AYMAaMAWPAGDAGjAFjwBgwBowBY8AYMAaMAWPAGDAGjAFjwBgwBowBY8AYMAaMAWPAGDAGjAFjwBjoEgb+D5wDezjsqDtpAAAAAElFTkSuQmCC;" vertex="1" parent="GddeR_gk6UWAWkvnxlwY-39">
          <mxGeometry x="8" y="7.169999999999959" width="64" height="65.66" as="geometry" />
        </mxCell>
        <mxCell id="GddeR_gk6UWAWkvnxlwY-44" value="" style="endArrow=none;html=1;rounded=0;strokeWidth=2;" edge="1" parent="1">
          <mxGeometry width="50" height="50" relative="1" as="geometry">
            <mxPoint x="320" y="440" as="sourcePoint" />
            <mxPoint x="770" y="440" as="targetPoint" />
          </mxGeometry>
        </mxCell>
        <mxCell id="GddeR_gk6UWAWkvnxlwY-45" value="&lt;font style=&quot;font-size: 16px;&quot;&gt;Cloud&lt;/font&gt;" style="text;html=1;strokeColor=none;fillColor=none;align=left;verticalAlign=middle;whiteSpace=wrap;rounded=0;" vertex="1" parent="1">
          <mxGeometry x="320" y="399" width="100" height="30" as="geometry" />
        </mxCell>
        <mxCell id="GddeR_gk6UWAWkvnxlwY-46" value="&lt;font style=&quot;font-size: 16px;&quot;&gt;On-Premise&lt;/font&gt;" style="text;html=1;strokeColor=none;fillColor=none;align=left;verticalAlign=middle;whiteSpace=wrap;rounded=0;" vertex="1" parent="1">
          <mxGeometry x="320" y="450" width="110" height="30" as="geometry" />
        </mxCell>
      </root>
    </mxGraphModel>
  </diagram>
</mxfile>
